<?xml version="1.0" standalone="no"?>
<!DOCTYPE svg PUBLIC "-//W3C//DTD SVG 20010904//EN"
 "http://www.w3.org/TR/2001/REC-SVG-20010904/DTD/svg10.dtd">
<svg version="1.0" xmlns="http://www.w3.org/2000/svg"
 width="990.000000pt" height="550.000000pt" viewBox="0 0 990.000000 550.000000"
 preserveAspectRatio="xMidYMid meet">

<g transform="translate(0.000000,550.000000) scale(0.100000,-0.100000)"
fill="#000000" stroke="none">
<path d="M0 2750 l0 -2750 4950 0 4950 0 0 1103 c0 781 -3 1106 -11 1114 -8 8
-8 13 0 17 8 5 11 474 11 1637 l0 1629 -4950 0 -4950 0 0 -2750z m9340 2440
c0 -5 -2 -10 -4 -10 -3 0 -8 5 -11 10 -3 6 -1 10 4 10 6 0 11 -4 11 -10z m355
-160 c3 -5 1 -10 -4 -10 -6 0 -11 5 -11 10 0 6 2 10 4 10 3 0 8 -4 11 -10z
m-1070 -49 c6 -11 -29 -34 -38 -25 -3 3 -3 12 0 20 6 16 29 19 38 5z m-165
-491 c0 -5 -4 -10 -10 -10 -5 0 -10 5 -10 10 0 6 5 10 10 10 6 0 10 -4 10 -10z
m-7580 -80 c0 -5 -4 -10 -10 -10 -5 0 -10 5 -10 10 0 6 5 10 10 10 6 0 10 -4
10 -10z m6810 -110 c0 -5 -4 -10 -10 -10 -5 0 -10 5 -10 10 0 6 5 10 10 10 6
0 10 -4 10 -10z m1385 -50 c3 -5 1 -10 -4 -10 -6 0 -11 5 -11 10 0 6 2 10 4
10 3 0 8 -4 11 -10z m-4524 -231 c11 -5 16 -15 13 -21 -5 -7 -2 -8 5 -4 14 9
51 -21 51 -41 0 -7 6 -16 14 -19 19 -7 9 -34 -13 -35 -14 -1 -14 -2 1 -6 30
-8 24 -37 -17 -80 -44 -46 -95 -67 -95 -39 0 20 32 35 38 18 2 -7 8 -12 14
-12 6 0 7 7 4 16 -7 19 10 44 27 40 7 -1 9 -1 6 1 -4 2 -4 23 -2 46 4 37 1 47
-25 75 -25 26 -38 32 -72 32 -59 0 -103 -44 -99 -98 2 -21 0 -43 -4 -49 -5 -7
1 -13 15 -15 13 -2 24 -10 24 -18 3 -32 5 -35 13 -21 11 17 41 7 41 -14 0 -19
-13 -19 -49 0 -42 21 -86 84 -86 120 2 85 124 163 196 124z m529 1 c-23 -7
-23 -8 -3 -9 12 -1 25 -5 28 -11 9 -15 38 -13 29 3 -4 6 2 4 13 -6 12 -11 19
-26 16 -36 -3 -11 0 -22 6 -25 16 -10 13 -72 -4 -86 -12 -10 -15 -7 -21 14 -6
25 -34 37 -34 15 0 -5 -4 -7 -10 -4 -16 10 -12 21 14 35 14 7 22 18 19 26 -4
11 -10 10 -28 -4 -28 -21 -63 -74 -43 -67 8 3 22 -11 35 -35 l21 -40 -21 -5
c-12 -2 -35 -6 -52 -9 -16 -2 -9 -3 17 -3 26 1 43 -2 39 -6 -11 -11 -40 -12
-73 -4 -20 5 -26 12 -21 24 4 9 2 14 -3 10 -14 -8 -56 57 -48 77 8 21 40 21
48 0 5 -12 2 -15 -10 -10 -10 4 -14 1 -12 -6 3 -7 20 -14 38 -15 22 -1 29 1
20 7 -12 7 -11 12 3 28 23 25 22 28 -13 42 -16 7 -30 16 -30 21 0 5 -7 9 -15
9 -17 0 -20 16 -5 25 6 4 8 10 5 15 -3 5 0 12 6 16 8 5 9 3 4 -6 -5 -8 -3 -11
6 -8 8 3 13 11 11 17 -1 7 2 10 7 7 5 -4 12 -2 16 4 3 5 21 10 38 9 31 -1 31
-1 7 -9z m3437 -20 c3 0 0 -7 -7 -15 -6 -8 -9 -19 -5 -25 3 -5 -2 -10 -11 -10
-17 0 -17 -1 0 -13 16 -12 16 -14 -4 -32 -18 -16 -20 -16 -14 -2 3 10 1 17 -5
17 -6 0 -11 -6 -11 -14 0 -26 -20 -28 -29 -4 -6 13 -10 18 -10 12 -1 -12 -36
-25 -45 -17 -2 2 0 18 4 35 8 25 7 28 -5 18 -24 -20 -19 13 5 35 41 37 62 43
99 28 18 -7 36 -13 38 -13z m-7383 14 c22 -8 20 -25 -1 -18 -17 5 -17 5 0 -9
27 -23 20 -37 -19 -37 -28 0 -35 -3 -30 -15 3 -10 -1 -15 -13 -15 -10 0 -22
-7 -25 -16 -10 -27 -28 -3 -22 30 4 19 3 26 -3 17 -7 -11 -10 -11 -16 0 -6 8
3 22 25 41 33 27 70 35 104 22z m5071 -4 c3 -5 19 -10 34 -10 54 0 77 -64 35
-95 -16 -11 -16 -13 2 -23 18 -11 18 -11 -1 -12 -12 0 -26 5 -33 12 -9 9 -12
9 -12 -4 0 -12 -7 -14 -32 -9 -23 5 -33 12 -33 25 0 29 30 44 56 28 16 -10 24
-10 35 -1 22 18 17 36 -16 51 -16 7 -30 16 -30 20 0 5 -3 7 -7 7 -20 -3 -34 2
-28 11 3 6 10 10 15 10 5 0 12 -4 15 -10z m1753 -7 c17 -10 37 -29 46 -44 20
-34 20 -51 1 -25 -14 19 -15 19 -15 -7 0 -16 -8 -30 -20 -37 -12 -6 -20 -22
-21 -38 -1 -22 -4 -18 -14 18 l-13 45 -1 -37 c-1 -21 -5 -38 -11 -38 -5 0 -11
17 -12 38 l-1 37 -4 -37 c-6 -51 -21 -48 -26 5 l-4 42 -1 -47 c-2 -57 -21 -65
-23 -10 -1 20 -3 29 -6 20 -6 -25 -33 -10 -33 18 0 17 -4 22 -15 18 -33 -13
-3 44 38 74 38 27 94 29 135 5z m-6588 4 c0 -2 -9 -12 -20 -22 -19 -17 -20
-17 -20 -1 0 9 4 15 9 11 5 -3 12 -1 16 5 6 10 15 14 15 7z m55 -7 c19 -8 19
-9 -2 -9 -12 -1 -25 4 -28 9 -7 12 2 12 30 0z m1730 -11 c17 -12 22 -19 13
-16 -21 7 -28 -20 -13 -48 7 -11 11 -26 10 -32 -2 -7 -3 -17 -4 -23 -2 -22
-21 -8 -21 15 0 15 -7 28 -17 32 -26 9 -34 25 -21 41 18 22 -5 36 -33 21 -20
-11 -21 -14 -6 -17 19 -4 19 -4 11 -26 -3 -9 -13 -16 -20 -16 -8 0 -17 -14
-21 -30 -3 -17 -11 -29 -17 -27 -15 5 -14 48 2 68 11 14 10 19 -3 32 -14 15
-13 17 12 31 40 22 93 19 128 -5z m245 13 c22 -10 23 -32 1 -32 -10 0 -24 -7
-31 -15 -10 -12 -10 -15 1 -15 21 0 -3 -18 -35 -26 -27 -6 -28 -6 -16 16 6 12
9 24 6 28 -3 3 -6 1 -6 -5 0 -6 -9 -13 -20 -16 -34 -9 -24 31 13 53 33 20 60
24 87 12z m3150 -42 c38 -35 39 -73 2 -120 -21 -27 -34 -35 -57 -35 -17 1 -37
5 -44 10 -10 5 -12 4 -7 -3 13 -21 -10 -13 -32 11 -48 51 -32 135 31 160 41
17 71 11 107 -23z m787 34 c-3 -3 -12 -4 -19 -1 -8 3 -5 6 6 6 11 1 17 -2 13
-5z m62 -15 c-22 -13 -31 -11 -17 5 7 8 17 12 22 9 4 -3 2 -9 -5 -14z m264 10
c12 -6 30 -21 39 -33 22 -27 24 -99 2 -120 -8 -9 -12 -16 -7 -16 4 0 0 -5 -10
-11 -27 -16 -32 -4 -8 20 21 21 27 55 15 85 -8 22 -25 20 -17 -1 5 -15 3 -16
-8 -5 -20 19 -31 14 -24 -10 4 -17 4 -19 -3 -9 -6 9 -19 11 -34 8 -17 -5 -31
0 -45 13 -20 18 -22 18 -29 2 -9 -21 -5 -64 7 -76 18 -19 9 -29 -11 -11 -11
10 -17 22 -14 26 3 5 0 9 -5 9 -16 0 -13 46 4 80 28 55 94 77 148 49z m-4847
-16 c-3 -10 6 -42 19 -71 29 -63 29 -62 12 -62 -6 0 -18 15 -25 33 -7 17 -17
40 -23 49 -5 11 -5 27 1 43 11 28 24 35 16 8z m2839 7 c-30 -8 -27 -12 10 -14
11 -1 20 -5 20 -11 0 -5 -3 -9 -6 -8 -3 1 -11 -12 -18 -30 -15 -37 -79 -76
-91 -56 -4 6 -13 8 -19 5 -6 -4 -14 0 -18 10 -4 12 4 25 28 45 21 18 28 29 19
29 -9 0 -20 -3 -26 -7 -5 -5 4 4 20 20 23 21 40 27 71 26 38 -1 39 -2 10 -9z
m-3321 -16 c10 -25 1 -27 -19 -4 -15 17 -16 20 -3 20 9 0 19 -7 22 -16z m1644
-27 c33 -33 39 -46 30 -55 -9 -9 -19 -5 -44 19 l-32 31 -30 -31 c-26 -28 -31
-29 -42 -16 -11 14 -7 22 25 55 22 22 42 40 45 40 3 0 25 -19 48 -43z m271 15
c-17 -6 -9 -41 11 -52 11 -6 20 -8 20 -4 0 4 3 5 6 2 3 -3 -3 -21 -13 -40 -15
-27 -23 -33 -38 -28 -18 6 -18 7 -1 17 12 7 15 13 7 17 -6 4 -11 22 -11 40 0
26 -5 35 -22 40 l-23 6 24 14 c18 10 28 11 37 2 7 -6 8 -12 3 -14z m-2549 3
c0 -16 -9 -19 -35 -9 -13 5 -14 8 -3 15 20 13 38 11 38 -6z m2466 -13 c-17
-16 -18 -16 -5 5 7 12 15 20 18 17 3 -2 -3 -12 -13 -22z m367 -36 c9 -29 17
-55 17 -58 0 -2 -22 -4 -50 -4 -55 1 -54 0 -39 47 29 92 47 96 72 15z m4243
43 c7 -5 11 -24 9 -42 -3 -40 -36 -61 -71 -45 -25 12 -31 24 -13 30 5 2 11 20
12 41 2 35 4 37 27 32 14 -4 30 -11 36 -16z m-6641 -10 c-4 -12 -8 -28 -9 -35
-1 -7 -6 -17 -10 -21 -9 -9 -1 50 9 66 11 18 17 12 10 -10z m2661 9 c40 19 40
7 -1 -16 -19 -12 -35 -28 -35 -37 0 -14 3 -14 30 0 33 17 40 18 40 7 0 -5 -16
-16 -35 -25 -27 -13 -35 -23 -37 -44 -1 -16 -4 4 -7 42 -6 74 -4 95 10 74 6
-10 13 -10 35 -1z m3451 -14 c-48 -12 -77 -29 -77 -45 0 -4 27 3 59 17 45 18
66 21 83 15 23 -10 23 -10 1 -10 -12 -1 -25 -6 -28 -12 -7 -10 -110 -59 -126
-59 -4 0 -9 15 -11 33 -2 26 -9 34 -35 42 -48 14 -40 23 25 30 31 3 64 7 72 8
8 1 31 0 50 -2 l35 -4 -48 -13z m-5512 6 c-3 -5 1 -10 9 -10 16 0 21 -12 10
-23 -9 -9 -44 16 -44 30 0 7 7 13 16 13 8 0 12 -4 9 -10z m2595 -9 c0 -11 -26
-22 -34 -14 -12 12 -5 23 14 23 11 0 20 -4 20 -9z m-1142 -44 c-16 -6 -19 -13
-14 -35 4 -17 3 -22 -2 -13 -7 9 -12 10 -16 2 -4 -6 -12 -11 -18 -11 -6 0 -5
6 3 16 11 14 9 19 -11 36 -14 11 -19 17 -12 13 7 -3 15 1 18 10 5 11 9 13 14
5 8 -13 40 -3 41 14 0 6 4 2 8 -9 6 -15 3 -22 -11 -28z m1957 14 c0 -15 -8
-27 -22 -32 -20 -7 -23 -5 -23 20 0 32 8 43 29 39 9 -2 16 -14 16 -27z m1899
-6 c3 -9 0 -15 -8 -15 -8 0 -16 7 -20 15 -3 9 0 15 8 15 8 0 16 -7 20 -15z
m-6960 -10 c-4 -10 0 -15 12 -16 11 0 14 -3 8 -5 -17 -7 -4 -46 13 -40 8 3 11
1 8 -4 -3 -6 1 -10 10 -10 11 0 15 5 12 14 -3 8 3 22 14 32 12 11 19 13 19 5
0 -7 6 -11 13 -8 6 2 11 9 10 15 -2 6 3 9 11 6 15 -6 12 -30 -7 -55 -47 -62
-155 -68 -187 -10 -9 17 -7 19 21 14 29 -4 30 -3 28 24 -2 15 0 34 4 41 11 17
18 15 11 -3z m733 -7 c-3 -8 -6 -5 -6 6 -1 11 2 17 5 13 3 -3 4 -12 1 -19z
m5631 -3 c-3 -3 -9 2 -12 12 -6 14 -5 15 5 6 7 -7 10 -15 7 -18z m1137 -5
c-10 -11 -15 -20 -11 -20 14 0 -35 -59 -54 -65 -11 -4 -20 -15 -20 -27 0 -14
-5 -18 -16 -14 -9 3 -21 6 -27 7 -7 0 -3 4 8 9 19 8 19 9 -2 9 -15 1 -23 -5
-24 -16 -1 -16 -2 -16 -6 -1 -2 9 -16 24 -30 33 -20 14 -23 19 -12 26 8 5 22
6 32 3 11 -3 17 0 17 10 0 22 50 44 88 39 20 -4 32 -1 32 6 0 7 5 9 10 6 6 -3
13 1 16 10 4 9 9 13 12 10 3 -2 -3 -14 -13 -25z m-7445 -2 c0 -16 -3 -19 -11
-11 -6 6 -8 16 -5 22 11 17 16 13 16 -11z m2327 -21 c-16 -41 -70 -70 -115
-63 -64 10 -88 56 -29 56 18 0 43 7 55 16 12 8 27 12 32 9 5 -3 20 1 32 9 30
21 40 11 25 -27z m1868 33 c-3 -5 -15 -10 -26 -10 -10 0 -19 5 -19 10 0 6 12
10 26 10 14 0 23 -4 19 -10z m401 -6 c-3 -9 -6 -17 -6 -20 0 -2 -6 -1 -14 2
-8 3 -17 1 -21 -5 -3 -6 -1 -11 4 -11 6 0 11 -4 11 -10 0 -5 -5 -10 -11 -10
-7 0 -17 -8 -24 -17 -10 -14 -16 -15 -27 -5 -11 9 -17 9 -26 0 -8 -8 -15 -9
-22 -2 -14 14 15 40 77 70 58 27 67 29 59 8z m2357 -1 c-7 -2 -19 -2 -25 0 -7
3 -2 5 12 5 14 0 19 -2 13 -5z m-4146 -29 c7 -20 -8 -36 -25 -25 -14 8 -6 41
9 41 5 0 12 -7 16 -16z m3433 -16 c15 -16 17 -24 8 -30 -7 -4 -16 -8 -19 -8
-9 0 -28 47 -22 54 9 9 10 8 33 -16z m-1960 8 c0 -11 -19 -15 -25 -6 -3 5 1
10 9 10 9 0 16 -2 16 -4z m170 -6 c0 -5 -5 -10 -11 -10 -5 0 -7 5 -4 10 3 6 8
10 11 10 2 0 4 -4 4 -10z m568 -15 c29 -20 32 -25 17 -25 -23 0 -65 26 -65 41
0 14 8 11 48 -16z m-3838 -10 c0 -9 -41 -26 -71 -30 -37 -5 -31 5 14 21 35 13
57 16 57 9z m4980 -3 c0 -14 -11 -21 -26 -15 -8 3 -11 9 -8 14 7 11 34 12 34
1z m329 -8 c10 -9 -45 -3 -59 6 -11 7 -5 8 20 4 19 -4 37 -8 39 -10z m-5444
-4 c3 -5 1 -10 -4 -10 -6 0 -11 5 -11 10 0 6 2 10 4 10 3 0 8 -4 11 -10z m325
-34 c0 -3 -4 -8 -10 -11 -5 -3 -10 -1 -10 4 0 6 5 11 10 11 6 0 10 -2 10 -4z
m37 -2 c-3 -3 -12 -4 -19 -1 -8 3 -5 6 6 6 11 1 17 -2 13 -5z m285 -23 c-2 -8
3 -11 12 -8 9 4 27 -5 43 -19 l28 -26 -32 22 c-18 12 -33 18 -33 13 0 -4 9
-14 19 -20 25 -16 38 -72 20 -84 -11 -7 -11 -9 3 -9 18 0 15 -30 -9 -66 -7
-11 -10 -24 -6 -28 4 -4 -1 -4 -12 0 -11 4 -17 4 -13 0 10 -11 -25 -43 -42
-38 -34 9 -59 26 -53 35 3 6 1 7 -6 3 -12 -8 -34 10 -40 34 -11 40 -13 72 -4
67 12 -8 39 10 30 20 -5 4 -12 1 -17 -7 -8 -12 -10 -12 -15 2 -8 21 10 57 43
86 22 19 23 22 5 13 -12 -6 -29 -18 -37 -27 -9 -8 -16 -11 -16 -6 0 5 17 21
38 35 40 28 99 33 94 8z m1408 9 c0 -5 -4 -10 -9 -10 -6 0 -13 5 -16 10 -3 6
1 10 9 10 9 0 16 -4 16 -10z m2558 4 c39 -11 24 -19 -37 -19 -52 0 -57 2 -38
12 25 14 42 15 75 7z m-1098 -32 c14 -10 34 -37 46 -60 11 -24 24 -39 28 -35
5 4 6 1 4 -7 -3 -8 -11 -14 -17 -12 -6 1 -11 -3 -11 -9 0 -5 -17 -26 -37 -44
-30 -28 -46 -35 -77 -35 -47 0 -101 33 -117 72 -7 17 -16 25 -25 21 -9 -3 -14
2 -14 16 0 14 5 19 15 15 9 -4 16 3 20 19 19 73 121 105 185 59z m1377 -1 c14
-19 0 -31 -38 -31 -25 0 -60 -29 -73 -60 -3 -8 -5 0 -3 17 2 18 -1 35 -7 37
-6 2 -4 5 5 5 8 1 28 14 43 30 29 31 51 31 73 2z m1712 12 c3 -5 15 -13 26
-19 35 -20 75 -114 47 -114 -4 0 -12 -14 -17 -32 -6 -17 -19 -36 -30 -42 -11
-6 -33 -19 -48 -30 -26 -17 -29 -17 -46 -2 -10 9 -23 16 -29 16 -7 0 -12 5
-12 12 0 6 -3 9 -6 5 -9 -9 -34 19 -34 37 0 9 -5 16 -11 16 -5 0 -7 5 -4 10 3
6 0 10 -8 10 -14 0 -27 20 -27 40 0 4 8 6 18 4 12 -3 22 7 34 34 12 24 30 44
50 53 33 15 87 16 97 2z m-7309 -32 c40 -32 41 -45 5 -49 -26 -3 -50 -35 -40
-52 10 -15 28 -12 22 4 -6 16 19 43 30 32 4 -4 2 -15 -5 -26 -9 -15 -9 -22 3
-33 12 -13 12 -17 -3 -29 -68 -56 -159 -52 -215 10 -18 19 -18 21 -1 47 15 23
16 30 5 47 -11 18 -10 24 11 42 55 51 130 53 188 7z m5008 7 c2 -4 8 -6 13 -2
5 3 9 0 9 -5 0 -7 -14 -9 -36 -5 -40 6 -66 -9 -57 -33 5 -12 3 -14 -7 -8 -10
6 -12 3 -8 -13 4 -14 2 -19 -7 -16 -10 4 -11 14 -3 42 14 53 25 62 61 55 18
-3 34 -10 35 -15z m181 -10 c-30 -44 -29 -43 -29 -31 0 11 38 63 46 63 3 0 -5
-15 -17 -32z m131 20 c0 -5 7 -8 15 -8 9 0 12 -6 9 -15 -7 -17 -3 -18 21 -9
14 6 14 8 -2 26 -15 17 -15 18 -1 13 16 -7 48 -47 48 -62 0 -4 -7 2 -15 13
-15 18 -16 17 -10 -12 4 -19 0 -47 -9 -69 -9 -20 -15 -42 -13 -48 1 -6 -14
-20 -34 -29 -50 -25 -94 -15 -114 25 -19 38 -5 58 25 39 11 -6 32 -12 46 -12
24 0 25 -2 13 -17 -12 -14 -12 -16 0 -12 8 3 23 21 33 41 16 31 17 40 6 74
-12 35 -17 39 -51 42 -34 3 -39 0 -51 -28 -10 -24 -15 -28 -19 -16 -10 26 -28
19 -21 -9 4 -15 2 -25 -5 -25 -6 0 -11 10 -11 23 1 24 23 60 33 51 3 -3 15 3
27 14 20 18 80 26 80 10z m182 -10 c-7 -7 -12 -8 -12 -2 0 14 12 26 19 19 2
-3 -1 -11 -7 -17z m1493 12 c-3 -5 -12 -7 -20 -3 -21 7 -19 13 6 13 11 0 18
-4 14 -10z m-6230 -22 c6 -4 2 -8 -7 -8 -10 0 -18 7 -18 17 0 9 3 12 8 7 4 -5
12 -12 17 -16z m5647 13 c27 -10 63 -67 49 -76 -6 -3 -19 0 -30 7 -29 18 -51
-3 -33 -32 29 -48 -4 -55 -49 -11 -22 23 -29 39 -29 69 0 21 3 42 7 45 9 10
58 9 85 -2z m518 -1 c0 -4 -8 -18 -19 -31 -10 -13 -22 -34 -26 -47 -12 -40
-15 -18 -3 24 6 21 13 42 14 47 1 4 2 9 3 10 2 7 31 4 31 -3z m-6735 -14 c15
-10 25 -11 39 -4 16 9 23 6 38 -12 22 -27 20 -40 -10 -51 -19 -7 -22 -5 -22
18 0 47 -13 15 -14 -34 l-1 -48 -60 0 c-58 0 -60 1 -63 28 -3 21 1 27 17 27
27 0 38 20 18 35 -10 7 -17 19 -17 28 0 27 45 35 75 13z m1715 0 c0 -8 -7 -16
-15 -20 -10 -4 -15 1 -15 14 0 11 7 20 15 20 8 0 15 -6 15 -14z m1366 -1 c-26
-19 -42 -19 -26 0 7 8 20 15 29 15 13 -1 13 -3 -3 -15z m682 -12 c2 -16 -2
-23 -12 -23 -9 0 -16 5 -16 10 0 6 -12 10 -26 10 -16 0 -24 -5 -21 -12 2 -7
14 -12 25 -10 25 4 30 -13 7 -22 -21 -7 -19 -43 3 -55 15 -9 16 -11 1 -26 -8
-9 -31 -18 -50 -21 -43 -7 -69 14 -69 57 0 16 -4 29 -10 29 -5 0 -10 9 -10 20
0 14 7 20 21 20 12 0 35 11 51 26 40 33 101 31 106 -3z m1129 5 c24 -39 4 -51
-21 -13 -14 21 -14 25 -2 25 8 0 18 -6 23 -12z m-3480 -35 c-4 -21 -8 -47 -11
-58 -2 -11 -5 -24 -5 -29 -1 -6 -5 -6 -11 0 -6 6 -4 27 5 58 8 27 12 52 9 57
-3 5 0 9 7 9 8 0 10 -12 6 -37z m1414 17 c-15 -13 -22 -27 -18 -40 3 -10 0
-21 -7 -23 -8 -3 -8 -8 0 -16 6 -7 9 -23 6 -36 -3 -21 -7 -23 -23 -14 -20 10
-27 59 -8 59 7 0 9 10 5 25 -4 14 -2 25 4 25 5 0 10 5 10 11 0 6 -7 9 -15 5
-8 -3 -15 -1 -15 4 0 10 24 17 60 19 l25 0 -24 -19z m-3460 -17 c13 -16 12
-17 -3 -4 -10 7 -18 15 -18 17 0 8 8 3 21 -13z m936 -15 c-3 -7 -5 -2 -5 12 0
14 2 19 5 13 2 -7 2 -19 0 -25z m53 11 c0 -5 -9 -9 -20 -9 -19 0 -26 11 -14
23 8 8 34 -3 34 -14z m1931 -12 c16 -59 -34 -107 -61 -58 -13 25 -13 61 0 61
6 0 10 7 10 16 0 28 43 12 51 -19z m3129 29 c0 -11 -19 -15 -25 -6 -3 5 1 10
9 10 9 0 16 -2 16 -4z m1408 -36 c3 -9 0 -10 -9 -4 -12 7 -12 5 -1 -9 36 -44
-27 -78 -68 -37 -40 40 7 106 54 76 11 -7 22 -19 24 -26z m-3968 10 c0 -11 -4
-20 -9 -20 -5 0 -11 9 -14 20 -3 13 0 20 9 20 8 0 14 -9 14 -20z m1715 -8 c5
-12 13 -22 17 -22 5 0 8 -4 8 -8 0 -12 -49 -13 -72 -1 -11 6 -18 7 -15 2 4 -6
-10 -10 -29 -11 -21 -1 -32 3 -29 8 4 6 11 8 16 5 5 -4 12 1 15 9 3 9 12 16
19 16 7 0 18 7 25 15 16 20 32 15 45 -13z m-4300 -9 c-21 -14 -45 -17 -45 -5
0 10 43 29 54 24 5 -3 1 -11 -9 -19z m382 -20 c-3 -10 -5 -2 -5 17 0 19 2 27
5 18 2 -10 2 -26 0 -35z m1083 35 c0 -5 -5 -8 -11 -8 -6 0 -9 -7 -5 -15 7 -20
4 -19 -22 4 -28 24 -28 26 8 26 17 0 30 -3 30 -7z m1683 -2 c14 -11 15 -19 8
-38 -13 -34 -42 -44 -58 -22 -16 22 -17 46 -1 62 15 15 29 15 51 -2z m1827
-12 c0 -8 -7 -14 -15 -14 -8 0 -15 9 -15 20 0 13 5 18 15 14 8 -4 15 -12 15
-20z m1660 17 c0 -20 -30 -78 -50 -96 -20 -18 -19 -15 4 19 14 21 26 49 26 62
0 13 5 24 10 24 6 0 10 -4 10 -9z m-5913 -33 c-3 -7 -5 -2 -5 12 0 14 2 19 5
13 2 -7 2 -19 0 -25z m471 6 c1 -10 -3 -27 -11 -37 -12 -17 -13 -14 -13 22 1
41 18 52 24 15z m4899 4 c-3 -8 -6 -5 -6 6 -1 11 2 17 5 13 3 -3 4 -12 1 -19z
m-6157 -8 c0 -5 -5 -10 -11 -10 -5 0 -7 5 -4 10 3 6 8 10 11 10 2 0 4 -4 4
-10z m4658 -15 c-1 -14 -6 -25 -10 -25 -4 0 -7 -6 -5 -12 3 -17 -70 -23 -89
-7 -8 6 -13 19 -12 28 2 9 -3 15 -10 13 -8 -1 -11 2 -7 8 9 15 23 12 45 -10
27 -27 45 -25 67 5 22 31 23 31 21 0z m482 11 c0 -14 -29 -31 -38 -22 -2 3 -2
12 1 21 8 19 37 20 37 1z m-2480 -25 c0 -10 -8 -26 -19 -35 -17 -16 -19 -16
-24 3 -6 22 20 64 34 56 5 -4 9 -14 9 -24z m-2780 -6 c0 -8 -13 -23 -29 -34
-30 -22 -71 -28 -71 -11 0 6 10 10 23 10 27 0 47 17 47 42 0 11 5 15 15 12 8
-4 15 -12 15 -19z m1640 5 c0 -5 -4 -10 -10 -10 -5 0 -10 5 -10 10 0 6 5 10
10 10 6 0 10 -4 10 -10z m3748 -26 c-7 -15 -14 -20 -18 -13 -12 18 -62 -42
-55 -67 4 -20 0 -22 -43 -26 -56 -5 -64 -2 -28 11 33 13 34 39 2 51 -38 14
-41 30 -7 30 17 0 46 9 66 20 19 11 35 17 35 14 0 -3 8 -1 17 4 28 16 44 4 31
-24z m1226 20 c3 -8 2 -12 -4 -9 -6 3 -10 10 -10 16 0 14 7 11 14 -7z m-6127
-30 c-3 -3 -12 -4 -19 -1 -8 3 -5 6 6 6 11 1 17 -2 13 -5z m4236 -24 c16 0 26
-4 23 -9 -7 -11 -78 -3 -91 11 -7 8 -3 9 15 4 14 -3 38 -6 53 -6z m1947 0 c0
-5 -4 -10 -10 -10 -5 0 -10 5 -10 10 0 6 5 10 10 10 6 0 10 -4 10 -10z m-4460
-40 c0 -5 -5 -10 -11 -10 -5 0 -7 5 -4 10 3 6 8 10 11 10 2 0 4 -4 4 -10z
m3670 0 c0 -5 -13 -10 -30 -10 -16 0 -30 5 -30 10 0 6 14 10 30 10 17 0 30 -4
30 -10z m-3947 -16 c-3 -8 1 -14 11 -14 22 0 61 -57 62 -91 0 -16 -3 -29 -8
-29 -4 0 -8 -7 -8 -15 0 -25 -15 -17 -27 14 -10 28 -12 29 -49 20 -22 -4 -42
-9 -46 -9 -5 0 -7 -6 -5 -12 1 -7 -5 -11 -13 -9 -8 2 -30 4 -48 4 -31 1 -32 2
-30 45 1 47 36 92 70 92 9 0 19 4 22 8 2 4 20 8 39 9 26 0 34 -3 30 -13z
m1718 -17 c19 -12 42 -38 52 -57 49 -96 -47 -203 -152 -171 -105 31 -121 174
-26 228 51 29 83 29 126 0z m509 13 c0 -5 -4 -10 -10 -10 -5 0 -10 5 -10 10 0
6 5 10 10 10 6 0 10 -4 10 -10z m-277 -12 c42 -21 107 -100 107 -129 0 -29
-30 -73 -61 -89 -24 -13 -98 5 -106 26 -3 7 -10 14 -17 14 -19 0 -57 68 -52
94 14 75 73 114 129 84z m222 -8 c-10 -11 -22 -17 -27 -14 -5 3 -1 12 9 20 27
20 39 17 18 -6z m159 -44 c9 -19 16 -44 16 -57 0 -21 -1 -21 -19 -5 -11 10
-17 25 -14 37 4 14 -5 31 -28 56 l-34 35 31 -15 c17 -9 39 -32 48 -51z m2190
54 c19 0 60 -41 74 -73 10 -23 10 -27 0 -21 -9 6 -9 3 1 -9 11 -14 11 -17 0
-17 -8 0 -20 9 -27 21 -17 27 -81 54 -95 40 -6 -6 -18 -11 -27 -11 -20 0 -53
-34 -43 -43 3 -4 12 -2 20 4 9 9 13 8 13 0 0 -6 -6 -14 -14 -17 -8 -3 -17 -17
-21 -31 -6 -24 -7 -25 -20 -7 -23 30 -18 83 10 120 25 33 76 56 103 48 8 -2
19 -4 26 -4z m-7116 -13 c-9 -12 26 -35 48 -31 36 7 29 -14 -8 -24 -27 -7 -34
-14 -39 -43 l-6 -34 -2 32 c-1 38 -16 51 -30 26 -6 -12 -6 -25 0 -36 8 -13 6
-17 -5 -17 -17 0 -31 42 -22 65 3 8 17 20 31 25 16 6 25 17 25 31 0 12 3 20 6
17 3 -4 4 -8 2 -11z m2027 -11 c16 -14 30 -32 31 -41 2 -13 -1 -14 -12 -4 -7
6 -11 15 -8 20 3 5 -2 6 -10 3 -9 -3 -16 -1 -16 5 0 20 -26 11 -40 -14 -11
-20 -11 -27 1 -42 7 -10 1 -7 -14 6 -34 30 -34 34 0 66 34 31 33 31 68 1z
m794 10 c-48 -15 -69 -34 -68 -60 0 -20 1 -20 8 -2 4 11 10 15 13 10 4 -5 0
-18 -8 -29 -8 -10 -14 -15 -14 -11 0 5 -7 3 -15 -4 -25 -21 -19 31 8 61 29 34
56 49 87 48 21 -1 19 -3 -11 -13z m3991 3 c0 -6 6 -9 13 -6 24 9 40 -8 22 -23
-8 -7 -15 -8 -15 -2 0 17 -53 21 -77 5 -24 -16 -40 -12 -28 6 3 6 15 11 25 11
10 0 22 5 25 10 8 14 35 13 35 -1z m-6517 -18 c-13 -11 -23 -27 -23 -36 0 -16
-2 -16 -22 -3 -12 8 -24 20 -26 26 -4 14 32 31 68 31 l25 0 -22 -18z m5043 4
c18 -14 18 -14 -8 -15 -18 0 -28 5 -28 15 0 19 11 19 36 0z m526 -7 c-7 -7
-12 -8 -12 -2 0 14 12 26 19 19 2 -3 -1 -11 -7 -17z m457 -24 c46 -43 59 -86
19 -60 -13 7 -36 17 -53 21 -16 4 -24 10 -17 12 19 7 14 19 -15 32 -58 27 -50
-24 14 -84 l28 -25 -27 0 c-14 0 -28 -5 -30 -11 -2 -7 -12 -7 -32 0 -15 6 -32
9 -37 5 -10 -6 -41 21 -33 29 4 3 6 22 6 41 0 25 8 43 26 62 39 38 95 30 151
-22z m124 24 c-12 -13 -26 -39 -31 -58 -9 -32 -10 -32 -11 -8 -1 23 41 88 57
88 3 0 -4 -10 -15 -22z m-6088 -8 c3 -5 1 -10 -4 -10 -6 0 -11 5 -11 10 0 6 2
10 4 10 3 0 8 -4 11 -10z m2535 0 c0 -5 -2 -10 -4 -10 -3 0 -8 5 -11 10 -3 6
-1 10 4 10 6 0 11 -4 11 -10z m795 0 c3 -5 1 -10 -4 -10 -6 0 -11 5 -11 10 0
6 2 10 4 10 3 0 8 -4 11 -10z m1450 -6 c19 -9 36 -25 39 -40 9 -34 -4 -106
-22 -126 -16 -19 -82 -25 -82 -8 0 6 3 9 8 9 23 -4 52 2 52 11 0 6 -20 10 -45
10 -25 0 -45 -4 -45 -10 0 -5 -7 -7 -15 -4 -9 4 -13 13 -10 24 3 9 1 29 -5 44
-7 20 -6 36 6 66 15 36 20 40 51 40 19 0 50 -7 68 -16z m2491 -21 c-11 -11
-17 4 -9 23 7 18 8 18 11 1 2 -10 1 -21 -2 -24z m54 21 c0 -8 -4 -12 -10 -9
-5 3 -10 10 -10 16 0 5 5 9 10 9 6 0 10 -7 10 -16z m-4338 -54 c-8 -33 -16
-59 -18 -57 -12 12 -12 68 1 81 8 8 15 19 15 25 0 6 4 11 8 11 5 0 2 -27 -6
-60z m132 34 c7 -19 2 -18 -19 6 -16 17 -16 20 -3 15 9 -4 19 -13 22 -21z
m1248 -15 c-2 -23 0 -30 6 -21 7 11 11 8 16 -12 4 -18 1 -31 -14 -46 -19 -19
-20 -19 -30 0 -11 21 -13 80 -4 105 11 28 29 10 26 -26z m143 20 c-4 -5 -12
-9 -20 -9 -7 0 -16 -6 -19 -12 -5 -10 -7 -10 -12 0 -3 6 -12 12 -20 12 -8 0
-14 5 -14 11 0 6 9 8 20 4 11 -3 27 -2 37 4 20 10 36 5 28 -10z m1115 7 c0 -9
-7 -12 -19 -9 -13 3 -29 -4 -46 -21 -14 -14 -28 -26 -30 -26 -12 0 -3 35 12
52 20 22 83 25 83 4z m1437 -1 c6 -16 -22 -55 -40 -55 -6 0 -2 9 8 20 9 10 15
26 12 35 -4 8 -2 15 4 15 5 0 12 -7 16 -15z m-6754 -9 c4 -10 0 -12 -15 -8
-15 4 -17 7 -6 13 17 11 15 11 21 -5z m1243 -23 c-11 -11 -19 6 -11 24 8 17 8
17 12 0 3 -10 2 -21 -1 -24z m1694 33 c0 -3 -4 -8 -10 -11 -5 -3 -10 -1 -10 4
0 6 5 11 10 11 6 0 10 -2 10 -4z m431 -17 c15 -24 10 -40 -22 -70 -22 -21 -41
-29 -66 -29 -28 0 -34 3 -29 16 3 9 9 27 12 40 3 13 12 24 20 24 17 0 17 -1 5
-33 -12 -30 -5 -40 20 -26 24 13 40 44 33 63 -4 12 -20 16 -56 16 -33 0 -47 4
-42 11 9 16 113 6 125 -12z m1334 11 c8 -13 -5 -13 -25 0 -13 8 -13 10 2 10 9
0 20 -4 23 -10z m467 -3 c-6 -7 -10 -26 -9 -42 1 -15 -2 -29 -8 -31 -14 -6
-11 52 5 71 7 8 15 15 17 15 3 0 1 -6 -5 -13z m658 9 c0 -3 -4 -8 -10 -11 -5
-3 -10 -1 -10 4 0 6 5 11 10 11 6 0 10 -2 10 -4z m139 -55 c-1 -26 -3 -23 -20
34 -8 28 -8 29 6 11 8 -11 15 -31 14 -45z m712 33 c-12 -15 -21 -41 -21 -60 0
-26 5 -34 28 -42 l27 -10 -27 -1 c-29 -1 -58 22 -58 45 0 29 43 94 62 94 5 0
0 -12 -11 -26z m-5316 -4 c10 -11 13 -20 7 -20 -6 0 -16 9 -22 20 -6 11 -9 20
-7 20 2 0 12 -9 22 -20z m3382 14 c-3 -3 -12 -4 -19 -1 -8 3 -5 6 6 6 11 1 17
-2 13 -5z m-4589 -23 c-9 -15 -9 -25 0 -46 11 -23 10 -26 -5 -23 -12 3 -17 12
-15 28 1 13 -3 27 -9 31 -16 10 -2 29 22 29 16 0 17 -3 7 -19z m128 6 c7 -4 9
-19 5 -39 -6 -27 -12 -34 -36 -36 -29 -3 -30 -2 -30 41 0 41 2 44 25 43 14 -1
30 -5 36 -9z m5562 -1 c-7 -8 -17 -12 -22 -9 -4 3 -2 9 5 14 22 13 31 11 17
-5z m-3085 -36 c-3 -12 -14 -20 -27 -20 -15 0 -17 3 -8 9 8 4 13 11 13 15 -4
30 0 38 13 27 8 -7 12 -21 9 -31z m-1353 -24 l-33 -31 29 42 c16 23 31 37 33
31 2 -6 -11 -24 -29 -42z m2800 32 c0 -12 -16 -17 -38 -11 -12 3 -20 8 -18 12
5 8 56 8 56 -1z m2200 8 c0 -3 -4 -8 -10 -11 -5 -3 -10 -1 -10 4 0 6 5 11 10
11 6 0 10 -2 10 -4z m580 -5 c0 -6 -4 -13 -10 -16 -5 -3 -10 1 -10 9 0 9 5 16
10 16 6 0 10 -4 10 -9z m86 -18 c-10 -10 -19 5 -10 18 6 11 8 11 12 0 2 -7 1
-15 -2 -18z m-5796 7 c0 -5 -5 -10 -11 -10 -5 0 -7 5 -4 10 3 6 8 10 11 10 2
0 4 -4 4 -10z m2850 0 c0 -5 -2 -10 -4 -10 -3 0 -8 5 -11 10 -3 6 -1 10 4 10
6 0 11 -4 11 -10z m1990 -11 c0 -5 -4 -9 -10 -9 -5 0 -10 7 -10 16 0 8 5 12
10 9 6 -3 10 -10 10 -16z m17 -1 c-3 -8 -6 -5 -6 6 -1 11 2 17 5 13 3 -3 4
-12 1 -19z m803 -24 c0 -7 -5 -16 -12 -20 -6 -4 -8 -3 -5 3 4 6 0 16 -8 23 -7
6 -11 19 -8 27 5 14 8 13 20 -3 7 -10 13 -23 13 -30z m-5035 26 c3 -5 -1 -10
-9 -10 -9 0 -16 5 -16 10 0 6 4 10 9 10 6 0 13 -4 16 -10z m-540 -18 c-3 -3
-11 0 -18 7 -9 10 -8 11 6 5 10 -3 15 -9 12 -12z m3275 8 c0 -5 -5 -10 -11
-10 -5 0 -7 5 -4 10 3 6 8 10 11 10 2 0 4 -4 4 -10z m126 1 c-4 -5 2 -7 11 -5
14 4 18 -1 19 -20 1 -15 -4 -26 -10 -26 -17 0 -58 45 -49 53 10 10 35 8 29 -2z
m664 -1 c0 -5 -2 -10 -4 -10 -3 0 -8 5 -11 10 -3 6 -1 10 4 10 6 0 11 -4 11
-10z m1626 -5 c8 -21 -6 -41 -17 -24 -12 19 -11 39 1 39 6 0 13 -7 16 -15z
m-4251 -22 c-41 -30 -59 -34 -25 -5 19 16 37 28 40 25 3 -2 -4 -11 -15 -20z
m3720 17 c3 -5 2 -10 -4 -10 -5 0 -13 5 -16 10 -3 6 -2 10 4 10 5 0 13 -4 16
-10z m-6941 -32 c-10 -16 -22 -7 -17 13 4 15 8 17 14 8 4 -7 5 -17 3 -21z m95
-9 c1 -3 -10 -4 -23 -2 -23 5 -23 6 -8 24 16 18 17 18 24 2 3 -10 7 -21 7 -24z
m1546 21 c-5 -16 -2 -20 17 -21 18 -1 19 -2 4 -6 -23 -6 -38 9 -30 30 9 24 17
21 9 -3z m86 -3 c-10 -9 -11 -8 -5 6 3 10 9 15 12 12 3 -3 0 -11 -7 -18z m774
13 c3 -5 1 -10 -4 -10 -6 0 -11 5 -11 10 0 6 2 10 4 10 3 0 8 -4 11 -10z
m3248 -5 c-3 -9 -8 -14 -10 -11 -3 3 -2 9 2 15 9 16 15 13 8 -4z m-1083 -14
c-17 -32 -52 -51 -95 -51 -29 0 -36 3 -25 10 8 5 25 7 37 3 16 -3 23 -1 23 8
0 11 19 25 68 48 1 0 -2 -8 -8 -18z m-1220 -31 c0 -5 -7 -10 -16 -10 -8 0 -12
5 -9 10 3 6 10 10 16 10 5 0 9 -4 9 -10z m3377 -16 c-3 -3 -12 -4 -19 -1 -8 3
-5 6 6 6 11 1 17 -2 13 -5z m-3682 -13 c-3 -5 5 -12 17 -14 20 -4 19 -4 -4 -6
-27 -1 -35 8 -21 22 9 10 15 8 8 -2z m2572 3 c-3 -3 -12 -4 -19 -1 -8 3 -5 6
6 6 11 1 17 -2 13 -5z m-5070 -36 c23 -22 32 -45 12 -32 -7 4 -7 -1 1 -16 7
-12 7 -20 2 -16 -6 3 -12 3 -14 -1 -4 -9 -78 -47 -93 -48 -5 0 -14 -4 -18 -10
-5 -5 -7 7 -5 27 3 29 1 35 -9 26 -8 -7 -13 -7 -13 0 0 17 57 72 74 72 9 0 16
5 16 10 0 17 22 11 47 -12z m2239 13 c-4 -5 7 -12 24 -16 31 -7 74 -50 85 -86
26 -80 -75 -177 -153 -148 -63 24 -104 94 -87 148 11 36 54 79 85 86 17 4 28
11 24 16 -3 5 2 9 11 9 9 0 14 -4 11 -9z m822 -16 c1 -14 -2 -25 -7 -25 -5 0
-8 11 -8 25 0 14 2 25 6 25 4 0 8 -11 9 -25z m2862 15 c0 -6 23 -22 51 -35 63
-29 69 -37 68 -95 l0 -45 -15 28 c-8 15 -23 27 -34 27 -14 0 -20 7 -20 21 0
18 -2 20 -16 9 -13 -11 -16 -10 -21 8 -3 12 -9 22 -14 22 -5 0 -9 7 -9 15 0 8
-8 15 -18 15 -10 0 -27 -7 -38 -15 -18 -14 -18 -16 -2 -28 10 -8 15 -17 11
-20 -3 -4 -13 2 -22 11 -9 10 -25 24 -36 30 -19 11 -19 11 3 12 13 0 21 4 18
9 -4 5 13 16 36 24 53 19 58 20 58 7z m-2794 -23 c8 3 14 0 14 -7 0 -6 4 -9 9
-6 5 3 15 -2 22 -11 10 -12 10 -14 2 -9 -9 5 -13 0 -13 -14 0 -15 5 -20 14
-17 10 4 12 0 8 -15 -4 -18 -3 -19 17 -9 15 9 21 9 21 0 0 -6 -9 -13 -20 -16
-21 -6 -35 -36 -25 -53 3 -5 -3 -10 -14 -10 -12 0 -21 6 -21 14 0 8 -7 17 -16
20 -11 4 -14 2 -11 -6 19 -48 19 -48 3 -42 -18 7 -30 39 -21 54 4 6 15 8 25 5
13 -4 20 0 25 14 8 25 -1 41 -22 41 -13 0 -13 -3 -3 -15 10 -12 10 -15 -2 -15
-25 0 -33 18 -30 66 3 31 7 43 14 36 6 -6 17 -8 24 -5z m-1726 -9 c0 -7 7 -26
15 -41 9 -18 11 -35 6 -50 -8 -20 -10 -18 -16 16 -4 21 -14 41 -21 44 -8 3
-14 11 -14 18 0 8 -8 16 -17 18 -10 3 -3 5 15 6 19 1 32 -4 32 -11z m310 2
c13 -9 12 -12 -5 -25 -44 -34 -85 -77 -85 -91 0 -7 -9 -19 -19 -26 -11 -7 -17
-18 -13 -27 4 -13 1 -12 -16 3 -41 36 -21 139 32 165 27 13 87 13 106 1z
m-1223 -7 c-4 -3 3 -11 14 -17 27 -14 26 -30 -1 -34 -15 -3 -18 1 -13 14 4 11
3 15 -4 11 -7 -4 -10 0 -8 10 5 24 4 23 12 23 3 0 3 -3 0 -7z m2338 -18 c0
-12 -38 -13 -46 -1 -4 5 -12 5 -19 1 -8 -5 -5 -14 11 -31 12 -13 25 -21 30
-19 4 3 10 1 13 -4 3 -5 -1 -12 -9 -15 -9 -3 -18 1 -22 10 -3 8 -11 13 -19 10
-7 -3 -18 2 -25 10 -19 23 17 56 55 52 17 -2 31 -7 31 -13z m159 4 c-4 -7 4
-10 22 -9 37 2 75 -10 68 -22 -3 -5 -14 -6 -24 -3 -11 3 -29 1 -41 -5 -17 -10
-20 -18 -15 -48 4 -25 3 -32 -3 -22 -13 21 -17 120 -5 120 3 0 2 -5 -2 -11z
m3514 -4 c23 -10 32 -19 25 -23 -7 -5 -9 -13 -4 -21 7 -11 10 -11 16 0 6 9 10
8 16 -7 4 -10 8 -26 8 -34 1 -13 0 -13 -9 0 -6 10 -10 11 -10 3 0 -7 -9 -13
-19 -13 -11 0 -21 -5 -23 -11 -3 -8 -10 -8 -25 2 -25 15 -36 9 -27 -15 5 -12
17 -15 50 -14 24 2 44 7 44 12 0 5 3 6 6 3 4 -4 1 -13 -6 -22 -16 -20 -93 -20
-124 0 -47 31 -39 112 13 140 32 18 25 18 69 0z m-4498 -15 c11 -11 20 -24 20
-30 0 -10 -40 -50 -50 -50 -4 0 -12 -11 -18 -25 -15 -32 -55 -34 -76 -3 -21
30 -21 31 19 72 19 20 31 36 27 36 -4 0 0 5 8 10 24 15 48 12 70 -10z m1453
-13 c21 -8 23 -37 2 -37 -8 0 -20 8 -26 18 -8 13 -20 17 -40 14 -16 -2 -29 -8
-29 -11 0 -16 13 -19 37 -10 19 7 24 6 21 -3 -3 -7 -15 -14 -27 -16 -19 -3
-21 -8 -16 -33 5 -22 3 -29 -9 -29 -9 0 -18 12 -22 28 -3 15 -10 40 -14 55 -8
24 -6 29 13 36 41 16 62 17 77 6 8 -7 23 -15 33 -18z m2707 23 c0 -5 -5 -10
-11 -10 -5 0 -7 5 -4 10 3 6 8 10 11 10 2 0 4 -4 4 -10z m-5330 -10 c0 -5 -9
-14 -19 -20 -13 -6 -17 -17 -14 -30 3 -11 0 -20 -6 -20 -6 0 -11 -11 -11 -25
0 -16 -6 -25 -15 -25 -11 0 -15 12 -15 44 0 36 5 48 26 65 28 22 54 28 54 11z
m324 4 c17 -6 22 -34 7 -34 -5 0 -11 -9 -14 -20 -3 -13 -14 -20 -29 -20 -17 0
-27 -8 -35 -30 -14 -37 -30 -38 -43 -4 -8 20 -7 29 4 38 7 6 16 23 20 38 4 19
14 28 34 31 15 2 30 5 34 6 3 0 13 -2 22 -5z m2556 -4 c0 -5 -8 -10 -17 -11
-10 -1 -27 -2 -38 -3 -11 0 -21 -9 -23 -18 -3 -14 3 -18 22 -18 14 0 26 -4 26
-10 0 -5 -11 -10 -25 -10 -16 0 -25 -6 -25 -15 0 -8 5 -15 12 -15 9 0 9 -3 0
-12 -21 -21 -13 -28 34 -28 27 0 43 -4 39 -10 -3 -5 -37 -10 -75 -10 -38 0
-72 5 -75 10 -4 6 5 10 19 10 28 0 33 9 14 28 -9 9 -9 12 0 12 8 0 12 19 12
55 l0 55 50 0 c28 0 50 -4 50 -10z m1389 -15 c15 -14 12 -15 -24 -10 -32 5
-44 3 -55 -10 -19 -23 -2 -69 29 -73 26 -4 55 17 34 25 -20 7 -15 23 7 23 23
0 28 -41 8 -57 -31 -24 -58 -21 -83 9 -32 37 -31 55 1 89 28 30 57 31 83 4z
m-3319 -62 c0 -32 -48 -85 -67 -74 -9 4 -24 6 -34 4 -9 -3 -26 0 -36 6 -17 10
-16 10 5 11 12 0 22 6 22 13 0 6 19 36 43 65 l42 52 12 -27 c7 -16 12 -38 13
-50z m4035 68 c3 -5 1 -12 -5 -16 -5 -3 -10 1 -10 9 0 18 6 21 15 7z m89 3
c29 -11 15 -64 -17 -64 -1 0 -2 16 -2 35 0 19 1 35 2 35 1 0 8 -3 17 -6z
m-6800 -55 c-3 -5 0 -9 6 -9 7 0 14 9 17 20 3 11 9 20 14 20 17 0 9 -36 -12
-59 -12 -12 -19 -24 -17 -27 3 -2 15 7 28 21 20 22 25 35 29 80 1 5 4 5 10 0
5 -6 11 -35 14 -66 6 -56 6 -56 -29 -72 -63 -30 -68 -25 -78 72 -5 56 4 84 16
52 4 -13 6 -27 2 -32z m1765 33 c5 -10 9 -34 8 -54 -2 -34 -4 -36 -39 -36 -21
0 -40 3 -43 9 -4 5 3 9 13 9 29 0 45 25 37 60 -7 34 8 41 24 12z m3721 -29 c0
-13 -4 -23 -10 -23 -5 0 -10 17 -10 38 0 27 3 33 10 22 5 -8 10 -25 10 -37z
m-5522 2 c-3 -3 -9 2 -12 12 -6 14 -5 15 5 6 7 -7 10 -15 7 -18z m772 0 c0
-14 -4 -25 -10 -25 -11 0 -14 33 -3 43 11 11 13 8 13 -18z m690 15 c12 -8 9
-10 -13 -10 -16 0 -26 4 -22 10 8 12 16 12 35 0z m5158 -1 c-2 -6 -8 -10 -13
-10 -5 0 -11 4 -13 10 -2 6 4 11 13 11 9 0 15 -5 13 -11z m-904 -14 c-4 -8
-13 -15 -21 -15 -13 0 -13 3 -3 15 7 8 16 15 21 15 5 0 6 -7 3 -15z m-4683
-18 c-10 -9 -11 -8 -5 6 3 10 9 15 12 12 3 -3 0 -11 -7 -18z m6059 13 c0 -5
-5 -10 -11 -10 -5 0 -7 5 -4 10 3 6 8 10 11 10 2 0 4 -4 4 -10z m-4883 -22
c-3 -8 -6 -5 -6 6 -1 11 2 17 5 13 3 -3 4 -12 1 -19z m1493 9 c0 -8 -3 -16 -6
-20 -8 -8 -33 16 -27 26 7 12 33 8 33 -6z m3090 3 c0 -5 -2 -10 -4 -10 -3 0
-8 5 -11 10 -3 6 -1 10 4 10 6 0 11 -4 11 -10z m-6319 -23 c-10 -9 -11 -8 -5
6 3 10 9 15 12 12 3 -3 0 -11 -7 -18z m542 9 c7 -18 -31 -70 -65 -91 -36 -21
-35 -31 5 -51 43 -22 41 -20 22 -46 -16 -22 -17 -22 -11 -1 5 16 2 23 -14 28
-11 3 -20 11 -20 16 0 15 -73 6 -78 -8 -2 -9 5 -11 26 -7 30 6 72 -9 72 -26 0
-6 -9 -10 -21 -10 -19 0 -20 -4 -14 -42 l6 -43 -20 25 c-11 14 -23 33 -27 43
-7 21 -24 23 -24 1 0 -11 -6 -14 -20 -9 -17 5 -20 2 -21 -22 -1 -23 -3 -24 -6
-6 -2 12 1 32 7 44 9 16 9 23 1 29 -13 7 52 55 85 62 12 2 3 8 -26 15 -26 7
-51 21 -58 34 -17 27 -11 33 22 18 22 -11 32 -9 75 14 57 32 65 33 57 10 -5
-15 -4 -15 9 1 8 11 15 23 15 28 0 13 17 9 23 -6z m3388 -20 c-8 -21 -17 -26
-43 -26 -30 0 -31 1 -16 17 14 13 20 14 32 3 14 -10 16 -9 16 7 0 11 3 23 7
26 12 13 14 0 4 -27z m929 17 c0 -9 12 -30 27 -45 15 -15 22 -28 16 -28 -14 0
-40 30 -52 63 -7 17 -7 27 -1 27 6 0 10 -8 10 -17z m1293 -3 c-3 -11 -7 -20
-9 -20 -2 0 -4 9 -4 20 0 11 4 20 9 20 5 0 7 -9 4 -20z m-2473 1 c0 -5 -9 -7
-20 -4 -11 3 -20 7 -20 9 0 2 9 4 20 4 11 0 20 -4 20 -9z m185 -1 c3 -5 1 -10
-4 -10 -6 0 -11 5 -11 10 0 6 2 10 4 10 3 0 8 -4 11 -10z m527 3 c-9 -3 -7
-12 9 -34 21 -30 19 -49 -7 -49 -8 0 -14 8 -14 19 0 10 -7 24 -15 31 -18 15
-3 40 24 39 10 0 12 -2 3 -6z m1962 -1 c3 -5 -1 -9 -9 -9 -8 0 -12 4 -9 9 3 4
7 8 9 8 2 0 6 -4 9 -8z m79 -22 c4 -17 3 -19 -9 -9 -8 6 -14 18 -14 26 0 20
16 8 23 -17z m-113 16 c0 -3 -4 -8 -10 -11 -5 -3 -10 -1 -10 4 0 6 5 11 10 11
6 0 10 -2 10 -4z m170 -40 c0 -2 -7 -7 -16 -10 -8 -3 -12 -2 -9 4 6 10 25 14
25 6z m-2637 -21 c5 -10 -2 -13 -29 -12 -18 1 -34 5 -34 8 0 20 56 24 63 4z
m-513 0 c0 -2 -13 -11 -30 -20 -16 -9 -30 -12 -30 -7 0 5 10 14 23 20 25 12
37 14 37 7z m2970 -21 c0 -8 -4 -12 -10 -9 -5 3 -10 13 -10 21 0 8 5 12 10 9
6 -3 10 -13 10 -21z m589 0 c14 -12 -19 -1 -35 12 -18 14 -18 14 6 3 14 -6 27
-13 29 -15z m96 6 c-3 -5 -14 -10 -23 -9 -14 0 -13 2 3 9 27 11 27 11 20 0z
m-6715 -25 c0 -8 -6 -15 -14 -15 -17 0 -28 14 -19 24 12 12 33 6 33 -9z m6657
9 c-3 -3 -12 -4 -19 -1 -8 3 -5 6 6 6 11 1 17 -2 13 -5z m-808 -46 c6 -10 7
-18 2 -18 -5 0 -7 -9 -4 -20 4 -16 2 -19 -12 -13 -15 5 -17 2 -12 -13 3 -10 8
-28 12 -39 4 -13 -1 -28 -15 -43 -26 -27 -39 -28 -37 -2 1 12 7 18 13 16 17
-7 35 17 25 33 -5 7 -25 14 -46 15 -30 1 -39 -3 -43 -18 -5 -20 -5 -20 -12 0
-4 10 -2 27 4 37 8 14 8 20 -4 27 -8 5 -11 12 -7 17 5 4 11 2 15 -4 6 -9 17
-9 49 0 23 7 45 16 50 20 12 13 -20 27 -34 16 -7 -6 -17 -8 -23 -4 -5 3 -10
-1 -10 -9 0 -9 -5 -16 -11 -16 -6 0 -8 7 -5 16 3 9 6 20 6 25 0 6 4 8 8 5 4
-2 14 -1 21 3 16 10 55 -8 70 -31z m271 27 c0 -7 -11 -10 -30 -7 -16 2 -30 8
-30 12 0 5 14 8 30 8 17 -1 30 -6 30 -13z m-6230 -4 c0 -5 -11 -8 -25 -8 -14
0 -25 3 -25 8 0 5 11 9 25 9 14 0 25 -4 25 -9z m525 -1 c-3 -5 -11 -10 -16
-10 -6 0 -7 5 -4 10 3 6 11 10 16 10 6 0 7 -4 4 -10z m50 1 c3 -6 -3 -9 -14
-8 -11 0 -17 5 -15 9 7 11 22 10 29 -1z m1125 -2 c0 -5 -13 -9 -30 -9 -39 0
-39 15 0 16 17 1 30 -3 30 -7z m1137 -11 c-3 -15 -19 -28 -56 -45 -46 -19 -52
-20 -47 -6 6 15 4 14 -14 -2 -33 -30 -23 -8 16 35 29 32 43 40 70 40 29 0 33
-3 31 -22z m550 5 c3 -10 17 -28 31 -40 20 -19 22 -23 8 -23 -9 0 -15 -4 -12
-9 6 -9 -30 -20 -79 -27 -11 -1 -22 -3 -24 -3 -2 -1 2 -8 9 -16 11 -13 10 -14
-5 -8 -14 5 -17 3 -12 -10 8 -21 -6 -22 -23 -2 -9 10 -9 15 -1 15 6 0 11 9 11
20 0 11 -5 20 -11 20 -5 0 -7 5 -4 10 3 6 -1 10 -11 10 -13 0 -10 6 12 25 16
13 36 31 44 39 21 20 59 20 67 -1z m287 -7 c30 -27 33 -38 9 -29 -16 6 -16 5
1 -12 19 -19 18 -20 -10 -32 -16 -7 -40 -12 -54 -13 -15 0 -32 -6 -39 -12 -11
-11 -13 -9 -8 10 4 18 2 22 -9 18 -8 -3 -14 0 -14 8 0 15 37 50 63 59 9 4 17
11 17 17 0 17 17 11 44 -14z m-1413 -1 c49 -18 78 -40 90 -72 12 -31 31 -29
51 7 11 20 22 28 33 24 8 -4 21 -2 28 4 20 17 87 19 87 3 0 -4 -11 -6 -25 -3
-17 3 -27 -1 -31 -12 -3 -9 -17 -16 -30 -16 -17 0 -24 -6 -24 -19 0 -11 5 -23
11 -27 6 -3 7 -9 3 -13 -28 -20 -34 -39 -23 -65 7 -14 16 -26 21 -26 4 0 8 -5
8 -12 0 -16 -58 41 -66 64 -3 10 -12 18 -20 18 -8 0 -13 3 -13 8 4 23 -3 42
-13 40 -7 -2 -13 5 -13 14 0 10 -5 17 -10 15 -6 -1 -9 -11 -7 -22 1 -11 0 -31
-3 -45 l-7 -25 -16 30 c-8 17 -17 25 -19 18 -2 -7 0 -21 6 -32 16 -30 14 -37
-19 -51 -38 -16 -75 -6 -105 26 -25 26 -28 15 -7 -23 9 -16 9 -23 2 -23 -6 0
-19 13 -28 30 -9 16 -22 30 -27 30 -6 0 -11 16 -11 35 0 19 5 35 11 35 5 1 19
15 30 32 11 17 27 34 35 36 13 5 13 3 1 -12 -13 -15 -11 -15 17 1 17 10 27 20
21 22 -7 2 -6 7 2 12 8 5 15 9 15 9 1 0 21 -7 45 -15z m-2520 -16 c72 -36 86
-115 33 -179 -33 -39 -99 -50 -143 -24 -33 19 -61 68 -61 104 0 50 65 119 113
120 10 0 36 -9 58 -21z m5084 7 l30 -14 -25 -10 c-14 -6 -19 -11 -12 -11 7 -1
10 -6 7 -12 -4 -6 -13 -8 -21 -5 -7 3 -20 -5 -28 -16 -9 -12 -19 -19 -22 -15
-4 4 3 19 17 33 24 26 24 26 2 15 -15 -8 -23 -8 -23 -1 0 5 -9 10 -20 10 -29
0 -25 17 8 28 37 14 52 13 87 -2z m1700 0 c26 -11 35 -21 35 -38 0 -16 3 -19
9 -10 7 11 9 11 14 -2 4 -9 2 -16 -4 -16 -6 0 -8 -8 -4 -19 7 -24 -22 -51 -31
-27 -3 9 -10 14 -14 11 -4 -3 -10 5 -13 16 -5 18 -10 20 -38 14 -31 -7 -32 -6
-25 21 l7 29 -22 -32 c-21 -33 -49 -44 -49 -20 0 7 6 19 12 25 10 10 10 14 0
21 -9 6 -4 13 20 24 41 20 59 21 103 3z m-5869 -47 c43 -85 -31 -197 -126
-190 -49 4 -85 21 -105 51 -11 16 -23 30 -27 30 -5 0 -8 15 -8 34 0 19 -6 36
-12 39 -9 3 -7 7 6 12 11 5 21 3 26 -6 5 -7 12 -10 16 -6 4 3 1 13 -6 22 -16
20 -6 19 14 -1 9 -8 16 -11 16 -6 0 6 7 12 15 16 14 5 13 2 0 -24 -9 -17 -13
-30 -10 -30 13 0 35 30 35 47 0 11 12 23 30 30 17 6 28 8 25 3 -3 -4 7 -10 21
-13 21 -4 25 -1 21 14 -3 11 -1 17 3 14 5 -3 12 -1 15 5 9 14 32 -4 51 -41z
m135 33 c-8 -3 -7 -8 6 -18 16 -12 16 -15 3 -24 -13 -8 -12 -10 5 -10 19 -1
19 -1 1 -15 -10 -8 -15 -19 -10 -26 4 -8 3 -10 -4 -5 -7 4 -12 18 -12 32 0 15
-6 24 -15 24 -8 0 -15 5 -15 10 0 6 5 10 12 10 6 0 8 3 5 7 -10 10 14 34 26
26 8 -5 7 -8 -2 -11z m2650 1 c13 -16 12 -17 -3 -4 -10 7 -18 15 -18 17 0 8 8
3 21 -13z m3660 0 c38 -22 63 -75 55 -117 -12 -64 -94 -111 -154 -89 l-23 9
31 22 c17 13 30 19 29 15 -3 -20 2 -34 11 -28 6 4 8 10 5 15 -5 8 25 21 55 24
19 1 40 58 23 63 -7 2 -9 11 -6 20 4 11 3 14 -6 9 -6 -4 -11 -4 -10 1 4 23 -3
31 -26 29 -13 -2 -22 1 -19 5 5 9 -15 13 -51 10 -30 -3 -65 -47 -65 -82 0 -43
18 -72 38 -64 15 5 15 4 -1 -12 -18 -17 -19 -17 -33 2 -74 99 41 231 147 168z
m-7711 -3 c0 -5 -5 -10 -11 -10 -5 0 -7 5 -4 10 3 6 8 10 11 10 2 0 4 -4 4
-10z m3232 -33 c-2 -5 -10 0 -18 10 -20 26 -17 36 4 16 11 -10 17 -22 14 -26z
m1342 37 c9 -3 16 -11 16 -16 0 -6 -7 -8 -15 -4 -25 9 -45 -4 -45 -30 0 -18 6
-24 23 -25 l22 -2 -22 -4 c-28 -5 -30 -23 -3 -23 11 0 20 -4 20 -10 0 -5 -11
-10 -24 -10 -13 0 -26 -7 -30 -15 -4 -12 3 -15 34 -15 21 0 42 -4 45 -10 4 -6
-17 -10 -54 -10 -62 0 -73 7 -46 30 13 11 13 15 3 22 -11 8 -11 10 0 15 9 4
10 8 2 18 -8 9 -8 15 0 20 5 3 10 15 10 25 0 10 10 26 22 34 26 19 22 18 42
10z m546 -29 c0 -19 -4 -35 -10 -35 -11 0 -14 53 -3 63 11 12 13 8 13 -28z
m2310 -50 c0 -79 1 -85 21 -85 12 0 19 -5 17 -12 -6 -17 -120 -18 -125 -1 -2
6 6 13 19 15 21 3 23 9 26 61 3 55 2 57 -23 57 -33 0 -32 15 3 33 57 31 62 26
62 -68z m-1740 68 c-2 -27 -29 -108 -36 -108 -5 0 -10 15 -12 33 -2 17 -8 32
-13 32 -6 0 -3 7 5 16 9 8 16 20 16 25 0 5 9 9 20 9 11 0 20 -3 20 -7z m-1990
-55 c0 -59 -10 -61 -11 -2 -1 47 -1 54 6 54 3 0 5 -23 5 -52z m1173 35 c5 -3
0 -14 -10 -25 -13 -15 -15 -22 -5 -25 19 -7 14 -29 -10 -45 -20 -13 -21 -17
-9 -32 12 -14 11 -16 -5 -16 -11 0 -29 3 -42 6 -22 6 -22 7 -6 26 14 14 15 21
6 30 -16 16 -15 38 2 38 17 0 29 27 15 35 -31 20 30 27 64 8z m-2341 -20 c3
-24 8 -28 33 -28 27 0 30 3 27 28 -3 23 0 27 23 27 l26 0 -3 -77 c-3 -70 -5
-78 -23 -78 -15 0 -20 7 -20 25 0 35 -10 47 -37 45 -19 -1 -24 -8 -26 -38 -2
-28 -8 -37 -21 -37 -14 0 -20 10 -24 47 -7 69 2 113 24 113 12 0 19 -9 21 -27z
m918 -31 c0 -31 -20 -74 -36 -79 -7 -2 -19 4 -29 13 -20 20 -13 82 12 101 23
18 53 -1 53 -35z m-1441 29 c9 -6 10 -10 2 -16 -16 -9 -44 2 -36 15 8 12 16
12 34 1z m221 0 c0 -12 -20 -25 -27 -18 -7 7 6 27 18 27 5 0 9 -4 9 -9z m5080
-16 c0 -20 5 -25 28 -26 l27 -2 -27 -4 c-22 -3 -28 -10 -28 -29 0 -13 -4 -24
-10 -24 -5 0 -10 11 -10 25 0 19 -6 25 -22 26 l-23 2 23 4 c15 3 22 11 22 29
0 13 5 24 10 24 6 0 10 -11 10 -25z m-5607 8 c26 -4 36 -10 33 -19 -3 -8 -1
-14 4 -14 6 0 10 4 10 9 0 5 12 12 27 15 61 16 68 -57 11 -114 -25 -25 -37
-30 -78 -30 -41 0 -55 5 -85 31 -19 17 -35 38 -35 47 0 13 3 12 21 -4 20 -18
21 -18 34 0 9 12 20 16 34 11 28 -8 26 0 -4 31 l-25 24 -6 -25 c-7 -28 -20
-31 -47 -10 -13 9 -17 20 -12 34 7 23 43 27 118 14z m3709 -34 c-7 -27 -13
-33 -29 -31 -26 4 -41 -17 -22 -29 11 -7 11 -9 -2 -9 -9 0 -19 3 -22 7 -9 8
22 43 39 43 6 0 17 14 23 32 14 41 25 30 13 -13z m978 19 c0 -19 -2 -20 -10
-8 -13 19 -13 30 0 30 6 0 10 -10 10 -22z m-5658 -24 c-2 -20 -8 -32 -12 -27
-10 9 -1 63 9 63 4 0 5 -16 3 -36z m1698 0 c0 -19 -4 -33 -8 -30 -12 7 -13 66
-1 66 5 0 9 -16 9 -36z m847 -16 c-2 -13 -4 -5 -4 17 -1 22 1 32 4 23 2 -10 2
-28 0 -40z m3382 -12 c-9 -8 -10 -7 -5 7 3 10 7 28 7 40 2 16 3 14 6 -7 3 -16
-1 -34 -8 -40z m936 54 c3 -5 1 -10 -4 -10 -6 0 -11 5 -11 10 0 6 2 10 4 10 3
0 8 -4 11 -10z m-6945 -15 c-7 -8 -18 -15 -24 -15 -6 0 -2 7 8 15 25 19 32 19
16 0z m2544 -76 c-21 -22 -36 -29 -63 -28 -22 1 -28 3 -14 6 12 2 27 11 33 19
7 8 21 14 31 14 13 0 19 7 19 24 0 13 3 33 8 43 5 14 8 10 10 -16 3 -26 -3
-40 -24 -62z m1496 66 c0 -14 -4 -25 -9 -25 -5 0 -8 8 -6 18 2 9 4 20 4 25 2
19 11 4 11 -18z m-4240 5 c0 -5 -4 -10 -10 -10 -5 0 -10 5 -10 10 0 6 5 10 10
10 6 0 10 -4 10 -10z m985 0 c3 -5 1 -10 -4 -10 -6 0 -11 5 -11 10 0 6 2 10 4
10 3 0 8 -4 11 -10z m2972 -5 c0 -8 -4 -15 -9 -15 -4 0 -8 7 -8 15 0 8 4 15 8
15 5 0 9 -7 9 -15z m573 6 c0 -6 -4 -13 -10 -16 -5 -3 -10 1 -10 9 0 9 5 16
10 16 6 0 10 -4 10 -9z m631 -23 c-3 -21 -6 -26 -9 -15 -3 17 3 47 11 47 2 0
1 -15 -2 -32z m-1525 7 c4 -8 10 -12 15 -9 23 14 5 -15 -32 -54 -37 -38 -46
-42 -90 -42 -58 0 -100 30 -78 56 16 19 26 18 32 -6 5 -21 29 -28 25 -7 -2 6
2 11 9 10 6 -1 16 4 23 12 8 10 18 11 34 5 17 -6 25 -4 34 11 8 12 8 19 2 19
-5 0 -10 5 -10 10 0 16 30 12 36 -5z m-1936 -16 c0 -6 -4 -7 -10 -4 -5 3 -10
11 -10 16 0 6 5 7 10 4 6 -3 10 -11 10 -16z m1376 -12 c-3 -13 -16 -34 -29
-48 -33 -35 -72 -66 -63 -51 5 8 -2 12 -27 12 -35 0 -92 35 -82 50 3 5 18 2
33 -6 53 -28 113 -8 147 48 19 33 30 31 21 -5z m847 7 c-3 -8 -13 -14 -22 -14
-14 0 -14 -2 -1 -10 14 -9 7 -14 -13 -11 -5 1 -5 -3 -2 -9 4 -6 -1 -18 -11
-25 -22 -16 -68 -20 -59 -5 3 6 1 10 -4 10 -6 0 -11 -4 -11 -10 0 -5 -11 -10
-25 -10 -14 0 -26 5 -26 10 -5 28 -2 34 16 36 33 3 129 42 133 53 2 5 9 8 17
5 8 -3 11 -12 8 -20z m2017 11 c0 -8 -4 -15 -10 -15 -5 0 -7 7 -4 15 4 8 8 15
10 15 2 0 4 -7 4 -15z m860 -11 c0 -8 -6 -14 -14 -14 -9 0 -12 7 -9 20 6 22
23 18 23 -6z m-765 6 c3 -6 -1 -7 -9 -4 -18 7 -21 14 -7 14 6 0 13 -4 16 -10z
m-5025 -16 c0 -8 -5 -12 -10 -9 -6 4 -8 11 -5 16 9 14 15 11 15 -7z m5180 -1
c0 -6 -12 -26 -26 -43 -26 -30 -27 -30 -46 -13 -11 10 -22 17 -24 16 -2 -2
-10 -3 -16 -2 -7 0 -2 4 10 10 13 5 29 6 34 2 7 -3 8 -1 4 6 -4 7 -6 18 -3 25
6 16 67 16 67 -1z m-4602 -10 c-6 -7 -25 -13 -43 -13 -18 0 -37 6 -43 13 -8 9
1 12 43 12 42 0 51 -3 43 -12z m3638 9 c19 -13 24 -40 8 -46 -21 -8 -39 -8
-31 0 4 4 -2 15 -14 25 -14 12 -16 18 -7 22 19 8 32 8 44 -1z m812 -51 c-7 -2
-16 -9 -21 -15 -8 -12 -37 19 -37 41 0 10 9 9 36 -4 20 -10 30 -19 22 -22z
m-4161 23 c-3 -3 -12 -4 -19 -1 -8 3 -5 6 6 6 11 1 17 -2 13 -5z m593 -29 c-7
-8 -18 -15 -24 -15 -6 0 -2 7 8 15 25 19 32 19 16 0z m3640 -47 c0 -5 -16 -8
-35 -8 -19 0 -35 5 -35 10 0 6 11 10 25 10 14 0 25 6 25 13 0 13 20 -12 20
-25z m1100 18 c0 -3 -4 -8 -10 -11 -5 -3 -10 -1 -10 4 0 6 5 11 10 11 6 0 10
-2 10 -4z m-7083 -12 c-3 -3 -12 -4 -19 -1 -8 3 -5 6 6 6 11 1 17 -2 13 -5z
m613 -9 c0 -5 -15 -11 -33 -12 -17 -1 -42 -5 -55 -8 -22 -5 -22 -5 -5 12 19
20 93 26 93 8z m837 -4 c-1 -11 6 -16 21 -15 16 0 20 -2 12 -10 -6 -6 -26 -9
-45 -7 -43 3 -44 -4 -4 -25 23 -11 29 -12 24 -2 -4 7 5 0 19 -15 16 -17 26
-40 26 -58 l0 -30 -25 28 -24 28 -1 -27 c0 -16 -4 -28 -10 -28 -5 0 -10 6 -10
14 0 25 -26 39 -50 26 -25 -14 -22 -27 12 -53 24 -18 27 -18 58 -2 37 19 44
15 46 -25 1 -20 -5 -31 -22 -41 -15 -8 -24 -21 -24 -36 0 -20 4 -23 23 -19 12
3 16 3 9 0 -6 -3 -10 -10 -7 -15 4 -5 -2 -6 -11 -2 -13 5 -15 3 -9 -7 5 -8 4
-11 -3 -6 -6 3 -33 -2 -61 -13 -44 -17 -52 -17 -68 -4 -10 8 -12 12 -5 8 7 -3
12 0 12 8 0 8 11 22 25 31 30 20 32 41 5 56 -11 6 -20 15 -20 21 0 6 4 8 9 4
5 -3 13 0 17 6 4 7 3 9 -3 6 -15 -9 -33 46 -33 97 0 30 -3 37 -10 26 -7 -11
-10 -11 -10 -2 0 31 45 86 62 76 5 -3 8 1 8 8 0 9 12 14 35 14 26 0 34 -4 32
-15z m1373 15 c0 -3 -4 -8 -10 -11 -5 -3 -10 -1 -10 4 0 6 5 11 10 11 6 0 10
-2 10 -4z m600 -8 c0 -11 -47 -11 -54 0 -3 5 8 9 24 9 17 0 30 -4 30 -9z m570
-2 c0 -9 -7 -12 -20 -9 -11 3 -17 9 -14 14 8 14 34 10 34 -5z m1405 -6 c-4 -6
10 -17 30 -26 21 -8 35 -18 32 -20 -3 -3 -15 0 -27 6 -28 15 -88 16 -103 1
-14 -14 -27 -14 -27 -1 0 5 18 14 40 20 22 6 40 15 40 20 0 6 5 10 11 10 5 0
7 -5 4 -10z m-5618 -13 c31 -17 62 -61 69 -95 8 -38 -19 -96 -57 -123 -103
-73 -242 49 -184 162 31 58 117 87 172 56z m6243 -24 c67 -73 45 -173 -45
-203 -49 -16 -115 14 -138 63 -21 43 -21 60 -2 98 9 16 13 35 9 41 -4 7 -3 8
4 4 12 -7 56 17 47 26 -3 2 20 1 51 -3 34 -5 63 -15 74 -26z m-3980 -5 c0 -5
-5 -8 -11 -8 -5 0 -8 -4 -5 -9 3 -4 -4 -17 -15 -27 -21 -19 -21 -19 -14 19 5
25 4 37 -4 37 -7 0 -10 4 -7 9 7 10 56 -9 56 -21z m230 17 c0 -8 -8 -15 -18
-15 -26 0 -62 -28 -74 -59 l-12 -26 -4 25 c-3 18 5 32 32 57 37 35 76 44 76
18z m4245 -1 c-6 -1 -22 -5 -36 -8 -15 -3 -30 -13 -33 -22 -6 -15 -4 -15 16
-2 26 17 88 29 88 17 0 -4 12 -14 27 -21 41 -20 52 -61 28 -105 -23 -42 -55
-65 -62 -45 -6 15 -63 16 -63 1 0 -6 6 -9 13 -6 8 3 20 1 28 -5 10 -7 2 -8
-26 -4 -103 14 -118 160 -21 201 17 7 35 11 40 7 6 -3 6 -7 1 -8z m-5890 -13
c19 -11 31 -27 32 -42 0 -13 -1 -18 -4 -11 -3 6 -11 12 -19 12 -15 0 -8 -30
10 -42 8 -5 7 -8 -1 -8 -7 0 -19 12 -27 28 -14 25 -15 25 -16 5 0 -12 -4 -24
-9 -27 -18 -12 -4 -41 20 -43 13 0 29 -2 34 -3 6 -1 13 -2 16 -2 4 1 4 -8 1
-20 -5 -19 -6 -19 -17 -4 -18 24 -25 20 -25 -14 0 -16 -5 -30 -10 -30 -6 0
-10 6 -9 13 3 26 -1 47 -11 47 -5 0 -10 -10 -10 -22 -1 -23 -1 -23 -15 2 -8
14 -15 21 -16 15 -1 -5 -2 -14 -4 -20 -1 -5 -3 -16 -3 -24 -3 -19 -12 -9 -17
19 -5 28 -15 39 -15 17 0 -9 -6 -19 -12 -23 -7 -4 -10 -4 -6 1 4 4 3 14 -3 21
-13 16 19 35 48 28 22 -6 51 20 34 30 -7 5 -7 15 -1 31 6 16 6 25 0 25 -6 0
-10 -9 -10 -20 0 -11 -4 -20 -10 -20 -5 0 -10 10 -10 23 0 18 -2 19 -10 7 -8
-13 -10 -13 -10 0 0 11 -3 11 -12 2 -17 -17 -28 -15 -28 7 0 27 47 61 84 61
17 0 45 -8 61 -19z m36 2 c13 -17 13 -17 -6 -3 -11 8 -22 16 -24 17 -2 2 0 3
6 3 6 0 17 -8 24 -17z m139 14 c0 -2 -11 -14 -25 -27 -14 -13 -25 -21 -25 -17
0 3 10 15 22 27 21 19 28 24 28 17z m2294 -33 c8 -32 21 -30 47 6 l23 30 31
-68 c30 -63 31 -67 13 -70 -11 -2 -24 -17 -30 -33 -6 -16 -23 -36 -38 -44 -25
-13 -30 -13 -53 6 -14 11 -29 30 -32 42 -4 12 -16 29 -26 37 -18 15 -18 17 7
72 27 59 47 67 58 22z m659 -6 c10 -13 26 -32 36 -43 17 -18 17 -24 6 -51 -39
-93 -179 -102 -227 -15 -17 31 -18 67 0 64 6 -2 12 3 12 10 0 18 39 53 70 65
33 12 80 -2 103 -30z m1027 38 c0 -2 -12 -11 -27 -20 l-28 -17 24 20 c23 21
31 25 31 17z m893 -16 c6 -24 27 -27 27 -3 0 29 15 3 16 -29 1 -17 -1 -26 -5
-20 -4 6 -28 12 -54 14 -49 3 -62 16 -26 25 12 3 18 11 15 19 -3 8 1 14 8 14
8 0 16 -9 19 -20z m605 0 c14 -13 22 -33 22 -53 0 -18 -4 -27 -8 -21 -27 40
-71 13 -75 -45 -1 -27 -7 -41 -16 -41 -8 0 -11 -6 -6 -17 4 -12 3 -14 -3 -8
-19 20 -33 83 -26 121 7 44 33 87 41 67 5 -15 33 -18 33 -4 0 5 -6 12 -12 14
-7 3 -4 6 8 6 11 1 30 -8 42 -19z m-4507 -19 c-5 -9 -6 -22 -4 -28 7 -21 -11
-15 -25 7 -10 16 -17 18 -31 11 -12 -7 -21 -7 -28 0 -7 7 -17 4 -30 -10 -19
-20 -63 -20 -63 1 0 6 7 7 16 4 22 -8 40 4 23 16 -11 7 -11 8 1 6 8 -1 28 1
43 5 19 5 39 3 58 -7 30 -15 38 -9 18 11 -9 9 -7 10 9 6 16 -4 19 -9 13 -22z
m3849 19 c0 -5 -4 -10 -10 -10 -5 0 -10 5 -10 10 0 6 5 10 10 10 6 0 10 -4 10
-10z m-4817 -24 c-15 -13 -30 -22 -33 -19 -6 6 38 43 52 43 5 0 -4 -11 -19
-24z m3500 15 c23 -9 25 -14 23 -70 -1 -47 -6 -64 -21 -75 -11 -9 -23 -16 -27
-16 -5 0 -8 34 -8 75 0 43 -4 75 -10 75 -5 0 -10 -24 -10 -53 0 -49 -12 -77
-32 -77 -4 0 -8 24 -8 54 0 30 -4 58 -10 61 -6 4 -10 -11 -10 -38 0 -28 -6
-49 -16 -57 -13 -12 -15 -7 -12 45 l3 59 45 12 c58 16 64 16 93 5z m-3840 -16
c-3 -9 -8 -14 -10 -11 -3 3 -2 9 2 15 9 16 15 13 8 -4z m-1073 -5 c0 -5 -4
-10 -10 -10 -5 0 -10 5 -10 10 0 6 5 10 10 10 6 0 10 -4 10 -10z m60 0 c0 -5
-4 -10 -10 -10 -5 0 -10 5 -10 10 0 6 5 10 10 10 6 0 10 -4 10 -10z m1418 -10
c7 -11 21 -20 32 -20 24 0 25 -6 5 -26 -8 -9 -15 -24 -15 -34 0 -18 -32 -32
-55 -24 -7 3 -19 23 -28 45 -8 21 -12 37 -7 34 5 -3 17 6 27 19 22 31 25 31
41 6z m4420 0 c-14 -22 -24 -19 -15 5 4 8 11 15 17 15 6 0 6 -7 -2 -20z m1487
10 c3 -5 -1 -10 -9 -10 -19 0 -21 -11 -4 -28 9 -9 8 -12 -4 -12 -10 0 -18 -12
-22 -35 -4 -19 -11 -35 -16 -35 -13 0 -13 -2 6 56 9 27 17 55 20 62 4 15 20
16 29 2z m78 -47 c-17 -68 -28 -83 -45 -64 -9 10 -9 12 -1 7 24 -14 23 15 -3
51 -22 31 -22 33 -2 11 26 -31 38 -35 38 -14 0 17 18 66 24 66 2 0 -3 -26 -11
-57z m146 23 c-2 -19 -1 -38 3 -41 10 -10 -3 -45 -17 -45 -28 0 -35 79 -9 104
22 23 26 20 23 -18z m-5199 15 c0 -6 -4 -13 -10 -16 -5 -3 -10 1 -10 9 0 9 5
16 10 16 6 0 10 -4 10 -9z m1558 -39 c3 -37 1 -42 -17 -42 -18 0 -21 6 -21 38
0 68 33 71 38 4z m58 24 c8 -32 -3 -66 -22 -66 -10 0 -14 13 -14 45 0 33 4 45
15 45 8 0 17 -11 21 -24z m54 -21 c0 -38 -3 -45 -20 -45 -17 0 -20 7 -20 38 0
41 6 52 27 52 9 0 13 -14 13 -45z m533 36 l37 -1 0 -50 c0 -48 -1 -50 -20 -40
-14 8 -20 21 -20 45 0 19 -4 35 -10 35 -5 0 -10 -18 -10 -39 0 -24 -5 -41 -14
-44 -20 -8 -26 2 -26 40 0 18 -4 33 -10 33 -5 0 -10 -15 -10 -34 0 -31 -19
-53 -34 -39 -7 8 -8 88 -1 95 3 3 22 4 43 2 20 -2 54 -3 75 -3z m782 -21 c22
-42 19 -46 -10 -12 -27 32 -31 42 -15 42 5 0 16 -13 25 -30z m2316 8 c20 -22
27 -74 9 -63 -6 4 -9 14 -8 23 2 12 -3 16 -20 15 -26 -3 -42 25 -21 38 19 12
19 12 40 -13z m81 -2 c4 -34 4 -43 -4 -58 -13 -27 -31 -22 -24 7 5 18 2 25 -9
25 -9 0 -15 9 -15 23 0 18 2 19 10 7 8 -13 10 -13 10 2 0 19 29 14 32 -6z
m-7164 -17 c-14 -13 -25 -16 -31 -10 -15 15 10 40 34 34 19 -5 19 -6 -3 -24z
m2212 22 c0 -6 -4 -13 -10 -16 -5 -3 -10 1 -10 9 0 9 5 16 10 16 6 0 10 -4 10
-9z m93 -3 c2 -7 1 -22 -4 -33 -6 -16 -8 -16 -8 -3 -1 9 -6 18 -13 20 -6 2 -8
10 -4 16 9 16 23 15 29 0z m2552 -16 c-8 -8 -25 10 -19 20 4 6 9 5 15 -3 4 -7
6 -15 4 -17z m-4155 -18 c0 -14 -4 -22 -10 -19 -5 3 -10 17 -10 31 0 14 4 22
10 19 6 -3 10 -17 10 -31z m6315 -11 c-7 -25 -8 -26 -15 -8 -9 26 -1 60 13 46
5 -5 6 -22 2 -38z m-5758 15 c-3 -8 -6 -5 -6 6 -1 11 2 17 5 13 3 -3 4 -12 1
-19z m1179 -20 c-14 -9 -20 7 -11 30 6 15 8 15 15 -3 4 -12 3 -23 -4 -27z m48
0 c7 -5 5 -8 -5 -8 -19 0 -32 26 -22 43 5 8 9 5 11 -8 3 -11 9 -23 16 -27z
m286 25 c0 -22 -17 -50 -25 -42 -6 7 11 59 20 59 3 0 5 -8 5 -17z m45 -22 c-3
-12 -13 -21 -21 -21 -17 0 -17 1 -4 36 13 33 36 19 25 -15z m55 19 c6 -11 8
-26 5 -33 -4 -6 1 -3 9 7 18 23 18 23 21 -28 2 -33 -2 -41 -29 -57 -31 -19
-92 -25 -111 -11 -19 14 -10 37 22 55 18 9 41 17 50 17 12 0 14 3 6 8 -15 9
-12 62 4 62 7 0 17 -9 23 -20z m2818 6 c18 -11 14 -43 -7 -58 -27 -19 -89 -11
-96 12 -3 11 0 28 7 40 10 16 21 20 48 17 20 -2 41 -6 48 -11z m-3136 -18 c14
-14 15 -18 3 -18 -8 0 -15 5 -15 10 0 14 -27 12 -33 -2 -3 -7 -6 -4 -6 8 -1
26 26 27 51 2z m44 -3 c-14 -14 -16 -14 -16 -2 0 9 6 17 13 20 19 7 21 -1 3
-18z m44 15 c0 -5 -5 -10 -11 -10 -5 0 -7 5 -4 10 3 6 8 10 11 10 2 0 4 -4 4
-10z m875 0 c3 -5 1 -10 -4 -10 -6 0 -11 5 -11 10 0 6 2 10 4 10 3 0 8 -4 11
-10z m2555 -5 c0 -8 -4 -15 -8 -15 -5 0 -9 7 -9 15 0 8 4 15 9 15 4 0 8 -7 8
-15z m-1980 -5 c0 -5 -4 -10 -10 -10 -5 0 -10 5 -10 10 0 6 5 10 10 10 6 0 10
-4 10 -10z m2170 -22 c0 -36 -4 -35 -14 5 -4 16 -2 27 4 27 5 0 10 -14 10 -32z
m-6866 1 c-3 -5 -10 -7 -15 -3 -5 3 -7 10 -3 15 3 5 10 7 15 3 5 -3 7 -10 3
-15z m5343 -16 c-3 -10 -5 -4 -5 12 0 17 2 24 5 18 2 -7 2 -21 0 -30z m2034
20 c13 -16 12 -17 -3 -4 -17 13 -22 21 -14 21 2 0 10 -8 17 -17z m299 -20 c0
-20 -28 -15 -40 6 -8 16 -6 20 8 23 18 4 32 -8 32 -29z m47 5 c-3 -7 -5 -2 -5
12 0 14 2 19 5 13 2 -7 2 -19 0 -25z m-6577 18 c0 -3 -4 -8 -10 -11 -5 -3 -10
-1 -10 4 0 6 5 11 10 11 6 0 10 -2 10 -4z m980 -1 c0 -14 -32 -66 -37 -61 -3
3 0 12 7 21 8 10 9 15 2 15 -6 0 -9 7 -6 15 6 14 34 22 34 10z m4710 -5 c0 -5
-2 -10 -4 -10 -3 0 -8 5 -11 10 -3 6 -1 10 4 10 6 0 11 -4 11 -10z m-1383 -22
c-3 -8 -6 -5 -6 6 -1 11 2 17 5 13 3 -3 4 -12 1 -19z m-3247 3 c0 -5 -7 -11
-15 -15 -9 -3 -15 0 -15 9 0 8 7 15 15 15 8 0 15 -4 15 -9z m180 -7 c0 -8 -4
-12 -10 -9 -5 3 -10 10 -10 16 0 5 5 9 10 9 6 0 10 -7 10 -16z m-67 -15 c-12
-12 -116 -22 -109 -10 4 6 13 8 21 4 8 -3 15 -1 15 5 0 5 18 9 41 9 22 0 37
-3 32 -8z m37 -9 c0 -5 -7 -10 -16 -10 -8 0 -12 5 -9 10 3 6 10 10 16 10 5 0
9 -4 9 -10z m3120 6 c0 -2 -8 -10 -17 -17 -16 -13 -17 -12 -4 4 13 16 21 21
21 13z m-4840 -48 c-10 -4 -21 -11 -25 -17 -8 -14 -45 -14 -45 -1 0 6 -9 10
-19 10 -11 0 -22 4 -25 8 -3 4 26 8 64 8 38 -1 60 -4 50 -8z m884 -64 c15 -14
24 -29 20 -36 -4 -7 -3 -8 4 -4 8 4 16 -3 22 -19 13 -33 13 -38 0 -30 -5 3
-10 0 -11 -7 0 -7 -7 1 -14 19 -41 91 -152 96 -194 9 -12 -23 -21 -48 -21 -55
0 -7 -4 -10 -9 -6 -5 3 -11 -3 -14 -12 -2 -10 -4 6 -5 35 -1 36 4 59 16 73 26
32 95 77 122 81 25 3 32 -1 84 -48z m2486 48 c0 -4 -9 -8 -20 -8 -11 0 -20 4
-20 8 0 4 9 8 20 8 11 0 20 -4 20 -8z m1980 -28 c8 -7 28 -14 44 -16 39 -4 55
-30 33 -53 -13 -13 -15 -26 -10 -58 3 -23 10 -43 15 -45 13 -6 9 -29 -8 -47
-22 -22 -34 -3 -27 42 4 26 2 33 -11 33 -9 0 -16 -6 -16 -14 0 -7 -6 -19 -14
-25 -12 -10 -15 -6 -21 19 -6 26 -11 31 -33 28 -23 -3 -27 -8 -27 -37 0 -48
-29 -65 -56 -32 -10 13 -19 32 -19 42 0 10 -4 19 -10 19 -37 0 20 98 91 156
16 12 47 7 69 -12z m581 8 c1 -10 1 -20 0 -24 0 -5 5 -7 12 -5 7 1 11 -7 10
-18 -1 -11 3 -22 8 -26 7 -4 4 -13 -6 -23 -15 -15 -15 -16 7 -17 46 -2 51 -4
55 -19 4 -13 3 -13 -6 0 -9 13 -15 9 -13 -10 1 -7 -29 -11 -80 -13 -37 0 -50
-11 -25 -20 6 -2 0 -4 -15 -4 -16 0 -28 5 -28 11 0 6 -7 3 -14 -7 -17 -22 -25
-22 -52 4 -16 15 -23 17 -26 7 -3 -7 -5 9 -6 35 -2 48 4 60 45 99 48 46 132
64 134 30z m259 8 c0 -5 -8 -10 -17 -11 -10 0 -2 -7 17 -14 19 -7 28 -14 20
-15 -12 0 -11 -3 3 -11 24 -14 21 -28 -4 -22 -12 3 -24 2 -28 -3 -6 -9 -91
-66 -91 -62 0 2 4 18 10 36 7 28 7 33 -5 28 -9 -3 -12 0 -8 10 3 8 12 13 19
10 8 -3 13 -2 11 3 -3 11 46 61 61 61 6 0 12 -4 12 -10z m-1374 -28 c10 -5 28
-19 38 -31 18 -19 18 -22 2 -47 -10 -14 -15 -28 -12 -32 8 -8 -35 -52 -51 -52
-7 0 -13 -6 -13 -13 0 -7 -9 -13 -20 -13 -11 0 -20 6 -20 13 0 7 -6 13 -13 13
-23 0 -57 40 -58 68 0 15 -3 21 -6 14 -2 -6 -9 -10 -14 -6 -14 9 -10 24 6 24
9 0 15 7 13 17 -2 10 11 26 32 40 36 25 76 27 116 5z m-5396 -7 c0 -5 4 -4 9
3 11 18 74 -56 67 -80 -2 -10 1 -21 6 -25 6 -3 8 -1 4 5 -3 6 -2 13 4 17 6 4
10 -6 10 -25 0 -18 -6 -33 -15 -36 -8 -4 -15 -13 -15 -21 0 -10 -6 -13 -16 -9
-9 3 -12 2 -9 -5 11 -17 -16 -39 -49 -40 -26 0 -28 -2 -11 -9 18 -7 18 -8 3
-14 -49 -17 -51 -17 -45 4 4 14 0 20 -12 20 -24 0 -62 29 -41 31 8 1 22 0 30
-1 8 -1 12 1 8 6 -4 4 -20 7 -34 8 -15 1 -30 8 -34 16 -4 8 -13 26 -20 39 -10
21 -10 26 4 36 8 7 13 15 9 18 -3 4 -1 7 5 7 7 0 12 7 12 16 0 11 5 14 17 10
10 -4 14 -4 10 0 -4 4 0 15 8 24 17 19 95 23 95 5z m4805 5 c4 -6 -7 -10 -25
-10 -18 0 -29 4 -25 10 3 6 15 10 25 10 10 0 22 -4 25 -10z m820 -1 c-6 11 -4
13 9 8 10 -4 22 -7 27 -7 5 0 9 -5 9 -11 0 -5 -5 -7 -12 -3 -7 5 -9 2 -5 -8 4
-12 -3 -18 -28 -22 -18 -4 -35 -10 -37 -15 -2 -5 -14 -12 -26 -16 -21 -6 -23
-5 -13 13 14 26 14 35 1 27 -5 -3 -10 -4 -10 0 0 3 14 14 32 25 26 15 35 17
47 7 12 -10 13 -9 6 2z m1395 7 c0 -2 -9 -6 -20 -9 -11 -3 -18 -1 -14 4 5 9
34 13 34 5z m-5310 -37 c0 -10 5 -19 10 -19 14 0 13 -37 -2 -46 -6 -4 -8 -3
-4 4 3 6 2 13 -4 17 -6 3 -13 -1 -16 -9 -9 -24 -29 -19 -42 10 -7 14 -8 23 -4
20 5 -3 16 8 26 25 18 31 36 31 36 -2z m1150 21 c10 -6 11 -10 3 -10 -7 0 -13
-6 -13 -14 0 -19 -40 -67 -50 -61 -11 7 -10 64 2 71 4 3 6 10 3 15 -8 12 36
11 55 -1z m1094 -15 c16 -15 25 -32 22 -40 -7 -20 -26 -19 -26 0 0 13 -4 14
-22 4 -27 -14 -48 -41 -42 -51 3 -5 0 -8 -5 -8 -6 0 -11 6 -11 13 0 15 43 106
51 107 3 0 18 -11 33 -25z m-1650 9 c22 -9 10 -24 -20 -24 -17 0 -28 -8 -36
-27 -6 -16 -11 -31 -10 -35 1 -4 -17 -12 -39 -18 -32 -9 -39 -15 -34 -28 14
-33 10 -47 -12 -50 -16 -2 -23 2 -23 12 0 9 5 16 10 16 6 0 10 5 10 11 0 5 -4
8 -9 5 -5 -3 -11 4 -15 17 -9 33 34 57 87 48 4 -1 5 13 2 31 -4 20 -1 34 7 39
15 10 60 12 82 3z m226 -34 c-22 -14 -37 -12 -44 6 -3 8 -2 13 2 10 4 -2 14
-1 22 4 9 6 19 5 25 -1 6 -6 5 -13 -5 -19z m1072 23 c-6 -2 -9 -10 -6 -15 4
-7 2 -8 -5 -4 -13 9 -5 26 12 25 9 0 8 -2 -1 -6z m3355 -7 c-4 -9 2 -12 17
-11 19 2 22 -1 18 -20 -2 -13 -13 -32 -23 -41 -23 -21 -24 -34 -4 -34 8 0 15
-4 15 -10 0 -5 8 -10 18 -11 12 0 10 -3 -8 -11 -22 -9 -23 -11 -7 -17 10 -4
17 -11 15 -16 -2 -6 14 -11 35 -13 32 -3 39 0 44 17 3 12 9 21 14 21 5 0 9 9
9 19 0 11 5 21 12 23 12 4 9 14 -23 67 -18 29 -18 33 -3 27 10 -4 21 -1 25 6
5 8 15 0 29 -25 12 -20 25 -35 29 -33 4 3 7 -4 7 -15 0 -10 -3 -19 -6 -19 -4
0 -14 -15 -22 -34 -22 -45 -113 -93 -135 -71 -8 8 -18 15 -23 15 -14 0 -68 58
-75 80 -4 11 -11 18 -16 15 -5 -4 -9 1 -9 10 0 9 4 14 9 10 6 -3 15 5 22 17 7
13 11 23 9 23 -2 0 3 10 11 23 15 25 24 29 16 8z m450 -21 c18 -28 19 -35 6
-39 -16 -6 -9 -26 10 -26 7 0 6 4 -3 10 -13 8 -12 10 3 10 30 0 16 -35 -16
-38 -31 -4 -35 -16 -9 -31 9 -6 12 -11 6 -11 -17 0 -47 37 -39 50 3 5 11 7 17
4 6 -4 6 1 -1 14 -9 17 -8 23 5 30 15 8 15 10 0 15 -16 6 -23 47 -8 47 4 -1
17 -16 29 -35z m-4332 5 c19 -21 13 -27 -34 -32 -29 -4 -37 14 -16 36 21 21
28 20 50 -4z m319 14 c9 -3 16 -13 16 -21 0 -13 -2 -13 -16 -2 -28 23 -73 20
-90 -7 -17 -24 -16 -55 1 -61 6 -2 10 12 10 29 0 31 3 33 35 35 19 1 29 0 23
-3 -7 -3 -13 -17 -13 -30 0 -13 -5 -24 -11 -24 -8 0 -8 -5 1 -15 11 -13 7 -15
-23 -15 -37 0 -47 12 -47 58 0 31 9 47 30 55 21 8 65 8 84 1z m3656 -4 c0 -5
-4 -10 -10 -10 -5 0 -10 5 -10 10 0 6 5 10 10 10 6 0 10 -4 10 -10z m214 -32
l7 -38 -38 1 c-21 0 -33 3 -26 5 7 3 9 12 6 20 -3 8 0 14 6 14 6 0 11 6 11 14
0 8 6 16 13 19 15 5 13 9 21 -35z m-6066 -12 c-7 -23 -21 -42 -35 -49 -27 -12
-30 -32 -5 -46 16 -10 15 -11 -3 -12 -81 -6 -126 10 -150 55 -14 26 -15 37 -6
54 14 26 13 26 73 7 42 -12 52 -12 82 0 19 8 38 20 41 26 13 20 14 3 3 -35z
m152 34 c0 -5 -4 -10 -10 -10 -5 0 -10 5 -10 10 0 6 5 10 10 10 6 0 10 -4 10
-10z m1110 -5 c0 -8 -4 -15 -10 -15 -5 0 -10 7 -10 15 0 8 5 15 10 15 6 0 10
-7 10 -15z m5120 10 c0 -12 -33 -55 -41 -55 -5 0 -3 14 6 30 13 26 35 41 35
25z m46 -25 c18 0 18 -24 -1 -40 -8 -7 -15 -21 -15 -30 0 -15 -5 -17 -27 -11
-29 8 -44 31 -20 31 20 0 52 37 36 42 -8 3 -10 11 -4 24 7 17 8 17 12 2 3 -10
11 -18 19 -18z m-7129 14 c-3 -3 -12 -4 -19 -1 -8 3 -5 6 6 6 11 1 17 -2 13
-5z m6138 -4 c-3 -5 -6 -25 -7 -44 -1 -19 -6 -37 -12 -39 -14 -6 -9 62 6 81
12 14 22 16 13 2z m-4098 -32 c-3 -7 -5 -2 -5 12 0 14 2 19 5 13 2 -7 2 -19 0
-25z m-1781 -5 c-10 -10 -19 5 -10 18 6 11 8 11 12 0 2 -7 1 -15 -2 -18z m640
12 c9 -8 11 -15 6 -15 -5 0 -13 -10 -17 -22 -6 -21 -8 -21 -12 -4 -3 10 1 22
9 27 10 6 10 9 1 9 -7 0 -13 5 -13 10 0 14 9 12 26 -5z m2309 5 c6 -1 -1 -6
-14 -11 -15 -6 -21 -15 -17 -24 6 -16 5 -17 -34 -19 -19 -1 -26 5 -28 22 -4
24 -17 29 -28 11 -3 -6 0 -15 7 -20 11 -7 11 -9 1 -9 -17 0 -27 27 -14 43 9
10 73 14 127 7z m-3428 -22 c-3 -8 -6 -5 -6 6 -1 11 2 17 5 13 3 -3 4 -12 1
-19z m2383 18 c0 -3 -4 -8 -10 -11 -5 -3 -10 -1 -10 4 0 6 5 11 10 11 6 0 10
-2 10 -4z m2435 -5 c3 -5 1 -12 -5 -16 -5 -3 -10 -2 -10 4 0 6 -7 7 -17 4 -11
-4 -14 -3 -9 5 9 14 33 16 41 3z m397 -21 c-2 -17 -9 -33 -15 -37 -7 -4 -8 0
-4 11 4 10 7 26 7 37 0 10 4 19 8 19 5 0 7 -14 4 -30z m-1509 5 c-3 -9 -8 -14
-10 -11 -3 3 -2 9 2 15 9 16 15 13 8 -4z m512 -3 c0 -18 -20 -15 -23 4 -3 10
1 15 10 12 7 -3 13 -10 13 -16z m689 -2 c14 -5 26 -17 26 -26 0 -16 -2 -15
-20 1 -11 10 -20 13 -20 8 0 -11 -41 -26 -48 -18 -2 2 -1 13 3 24 7 23 21 26
59 11z m1886 -7 c0 -9 -8 -12 -24 -9 -14 2 -27 -1 -30 -7 -2 -7 -5 -3 -5 9 -1
16 5 21 29 21 19 0 30 -5 30 -14z m-6836 -8 c3 -8 1 -15 -4 -15 -6 0 -10 7
-10 15 0 8 2 15 4 15 2 0 6 -7 10 -15z m1826 -22 c-12 -53 -49 -85 -101 -88
-46 -3 -82 12 -98 42 -8 16 -4 18 28 20 20 2 45 7 56 12 11 5 43 18 70 29 28
11 51 21 51 21 1 1 -2 -15 -6 -36z m587 15 c-3 -8 -6 -5 -6 6 -1 11 2 17 5 13
3 -3 4 -12 1 -19z m2408 12 c3 -5 1 -10 -4 -10 -6 0 -11 5 -11 10 0 6 2 10 4
10 3 0 8 -4 11 -10z m-4470 -29 c-8 -14 -55 -14 -55 0 0 6 8 8 19 4 11 -3 22
-1 26 5 4 6 9 9 12 6 3 -2 2 -9 -2 -15z m6282 2 c0 -7 -6 -13 -13 -13 -8 0
-11 -6 -7 -17 4 -11 3 -14 -5 -9 -7 4 -12 1 -12 -8 0 -10 -6 -13 -17 -9 -10 4
-14 2 -9 -5 3 -6 2 -13 -4 -17 -5 -3 -10 0 -10 7 0 8 -3 9 -8 2 -10 -15 -89
-17 -98 -3 -4 8 -3 9 4 5 7 -4 12 -3 12 3 0 5 -6 12 -12 14 -9 4 -10 6 -1 6 6
1 18 -6 26 -14 14 -13 18 -12 40 14 40 48 114 77 114 44z m393 10 c-1 -11 -26
-43 -34 -43 -4 0 -5 4 -1 9 3 5 1 12 -5 16 -6 4 -8 11 -5 16 7 11 45 12 45 2z
m-6937 -15 c20 5 20 4 8 -11 -19 -24 -81 -20 -81 5 0 6 7 8 15 5 8 -4 18 -1
22 5 5 9 8 9 10 1 2 -6 14 -8 26 -5z m157 2 c0 -5 -4 -10 -10 -10 -5 0 -10 5
-10 10 0 6 5 10 10 10 6 0 10 -4 10 -10z m-290 -15 c0 -8 -6 -15 -14 -15 -17
0 -28 14 -19 24 12 12 33 6 33 -9z m4770 5 c0 -5 10 -18 22 -30 17 -16 18 -20
6 -20 -9 0 -23 11 -32 25 -19 28 -20 35 -6 35 6 0 10 -4 10 -10z m770 -8 c0
-15 -37 -48 -69 -62 -37 -15 -96 -3 -96 20 0 9 14 14 45 15 25 0 59 8 75 18
34 18 45 21 45 9z m1360 4 c0 -2 -7 -6 -15 -10 -8 -3 -15 -1 -15 4 0 6 7 10
15 10 8 0 15 -2 15 -4z m578 -16 c-12 -18 -36 -26 -63 -20 -5 1 -17 2 -27 3
-28 2 -12 12 24 15 18 2 37 7 42 12 6 6 16 10 23 10 11 0 11 -4 1 -20z m-2228
-25 c-13 -14 -27 -25 -32 -25 -9 0 42 49 51 50 3 0 -6 -11 -19 -25z m-1765
-52 c17 -6 29 -15 28 -21 -2 -6 3 -9 11 -6 25 10 66 -57 66 -108 0 -38 -6 -51
-39 -87 -29 -31 -43 -40 -57 -34 -18 7 -18 6 -1 -11 21 -21 21 -24 3 -42 -8
-8 -22 -11 -30 -8 -9 3 -16 1 -16 -6 0 -7 -8 -9 -19 -5 -21 6 -85 -41 -75 -56
3 -5 0 -9 -5 -9 -14 0 -14 27 -1 35 6 4 8 10 6 14 -4 6 6 16 61 56 15 11 13
14 -18 30 -38 20 -60 45 -52 59 4 5 1 6 -4 3 -6 -4 -13 0 -17 8 -9 26 -40 16
-56 -17 -27 -58 -113 -88 -138 -48 -11 18 -10 20 10 20 21 1 22 2 6 14 -19 14
-25 32 -8 21 6 -3 10 -1 10 4 0 6 5 11 10 11 6 0 10 -9 10 -20 0 -11 4 -20 9
-20 18 0 63 49 56 60 -3 6 -3 10 2 9 4 -1 20 -1 36 0 22 1 27 6 27 26 0 14 8
34 18 45 43 51 78 80 95 80 9 0 20 7 24 16 3 9 9 11 12 6 3 -5 20 -14 36 -19z
m1707 5 c-3 -12 4 -21 22 -28 15 -5 35 -23 44 -40 9 -16 22 -30 27 -30 17 0 5
-73 -16 -100 l-19 -25 10 29 c16 44 7 56 -45 56 -25 0 -45 5 -45 10 0 16 -30
11 -37 -6 -9 -23 12 -40 31 -25 12 10 14 9 9 -8 -3 -11 5 -37 18 -58 12 -21
16 -32 9 -25 -17 15 -34 16 -24 0 4 -7 3 -8 -4 -4 -7 4 -12 2 -12 -3 0 -6 -5
-11 -10 -11 -7 0 -7 6 -1 19 8 14 7 20 -3 24 -15 6 -36 -11 -36 -28 0 -5 7 -1
15 9 8 11 15 15 15 9 0 -16 -28 -36 -39 -28 -7 4 -1 21 15 46 l25 41 -26 34
c-20 26 -24 38 -16 51 9 17 10 17 16 1 11 -28 59 -23 73 7 20 43 15 54 -27 61
-24 4 -41 13 -44 23 -3 13 4 16 38 16 35 1 41 -2 37 -17z m-2852 -1 c0 -7 -9
-13 -20 -13 -11 0 -20 6 -20 13 0 7 9 13 20 13 11 0 20 -6 20 -13z m3993 -1
c3 -7 -13 -11 -44 -11 -27 0 -49 5 -49 10 0 14 88 15 93 1z m277 0 c0 -7 -5
-17 -10 -22 -7 -7 -8 -19 -1 -37 6 -15 7 -27 2 -27 -5 0 -11 -8 -14 -19 -3
-14 -14 -18 -46 -18 -43 0 -50 7 -27 26 10 8 16 9 21 1 12 -20 23 -10 39 37 9
26 16 49 16 51 0 2 -16 2 -35 0 -21 -2 -35 0 -35 7 0 6 20 11 45 11 28 1 45
-3 45 -10z m-5713 -2 c-3 -3 -12 -4 -19 -1 -8 3 -5 6 6 6 11 1 17 -2 13 -5z
m2027 -20 c3 -8 0 -14 -6 -14 -7 0 -4 -6 7 -13 21 -16 13 -37 -14 -37 -14 0
-17 -6 -13 -26 4 -25 3 -26 -22 -22 -20 4 -29 0 -37 -14 -10 -19 -12 -19 -25
8 -9 16 -13 36 -11 46 3 10 0 15 -7 12 -19 -7 -15 24 5 42 22 20 89 43 105 37
7 -2 15 -11 18 -19z m2846 -5 c26 -18 67 -79 53 -79 -4 0 -17 14 -28 30 -53
79 -155 54 -179 -44 -6 -23 -9 -27 -17 -15 -7 11 -9 9 -9 -8 0 -13 -4 -23 -9
-23 -13 0 0 44 16 53 7 4 13 16 13 25 0 10 11 26 25 36 14 10 33 25 42 32 23
18 61 14 93 -7z m-5170 6 c0 -12 -85 -155 -92 -155 -14 0 -9 70 7 100 16 31
51 60 72 60 7 0 13 -2 13 -5z m109 -29 c25 -26 35 -46 38 -80 4 -28 2 -46 -5
-46 -5 0 -30 36 -55 80 -37 65 -42 80 -28 80 9 0 32 -15 50 -34z m276 -1 c43
-45 51 -83 29 -131 -25 -52 -68 -76 -123 -69 -51 6 -73 22 -96 71 -21 44 -12
86 24 123 34 34 45 39 95 40 32 1 44 -5 71 -34z m6183 15 c24 -22 29 -36 10
-24 -7 5 -9 2 -5 -8 7 -19 -26 -31 -42 -15 -7 7 -12 5 -17 -6 -3 -9 -10 -14
-16 -11 -5 3 -12 -3 -15 -15 -9 -34 -36 -27 -31 9 4 24 2 27 -9 18 -12 -10
-12 -7 -2 16 12 26 56 53 90 55 8 1 25 -8 37 -19z m-6523 -20 l16 -30 -36 0
c-39 0 -39 0 -23 35 15 33 24 32 43 -5z m875 15 c26 -13 50 -42 50 -59 0 -3
-11 -6 -25 -6 -28 0 -34 -15 -10 -24 8 -3 14 -9 13 -13 -2 -4 2 -8 7 -8 6 0 9
3 8 8 -2 4 1 7 7 7 13 0 13 -6 -6 -45 -31 -66 -122 -76 -172 -19 -27 31 -24
49 7 50 28 2 35 9 28 29 -4 8 -18 15 -32 15 -23 0 -24 2 -15 21 13 24 68 59
93 59 10 0 31 -7 47 -15z m2835 -1 c33 -15 55 -54 55 -97 0 -15 -3 -17 -14 -8
-7 6 -11 22 -8 36 2 14 -1 32 -8 40 -16 20 -83 19 -120 0 -49 -25 -55 -97 -10
-103 33 -5 51 -22 22 -22 -13 0 -22 -6 -22 -16 0 -25 -21 -12 -43 28 -29 49
-16 103 32 135 40 27 71 29 116 7z m263 5 c44 -15 76 -70 68 -114 -7 -36 -55
-85 -84 -85 -13 0 -13 2 3 13 13 10 16 21 11 40 -5 22 -2 29 24 42 33 17 39
45 15 65 -12 10 -20 9 -40 -4 -23 -15 -28 -15 -56 -1 -34 18 -59 7 -59 -24 0
-38 43 -54 65 -24 7 10 19 14 29 10 24 -9 15 -30 -15 -37 -30 -7 -39 -48 -13
-67 10 -7 13 -13 6 -13 -24 0 -60 23 -75 50 -32 54 -15 111 43 141 41 22 38
22 78 8z m-1663 -9 c3 -5 2 -10 -4 -10 -5 0 -13 5 -16 10 -3 6 -2 10 4 10 5 0
13 -4 16 -10z m1933 -15 c25 -29 10 -46 -18 -20 -10 9 -23 14 -29 11 -5 -4
-13 -1 -17 5 -7 11 12 29 32 29 6 0 20 -11 32 -25z m-2242 -7 c3 -5 0 -16 -7
-24 -11 -14 -13 -14 -21 1 -12 20 -28 10 -28 -18 -1 -20 -2 -21 -14 -4 -18 23
-30 22 -23 -3 3 -11 1 -20 -4 -20 -5 0 -9 -8 -9 -17 0 -13 -3 -14 -12 -5 -20
20 3 75 40 93 32 17 67 15 78 -3z m3644 7 c0 -8 -7 -15 -15 -15 -8 0 -15 -6
-15 -14 0 -8 -13 -24 -29 -35 -26 -19 -30 -19 -35 -5 -4 9 -4 26 0 37 4 13 2
17 -5 13 -6 -4 -11 -2 -11 4 0 7 6 10 14 7 8 -3 22 1 33 8 24 19 63 19 63 0z
m-6540 1 c1 -1 3 -31 6 -68 5 -64 5 -68 -15 -68 -18 0 -21 6 -21 48 0 34 -5
52 -19 64 -11 9 -23 13 -27 10 -4 -4 -5 -2 -2 3 5 7 75 17 78 11z m3417 -18
c1 -13 5 -34 8 -47 6 -22 4 -23 -10 -11 -13 11 -18 11 -25 1 -8 -14 -19 47
-12 68 7 21 38 12 39 -11z m57 6 c22 -22 20 -25 -9 -12 -14 6 -25 15 -25 20 0
13 17 9 34 -8z m3098 -16 c-8 -8 -9 -4 -5 13 4 13 8 18 11 10 2 -7 -1 -18 -6
-23z m150 2 c4 -27 2 -29 -20 -23 -24 6 -25 5 -19 -35 6 -36 5 -40 -12 -35
-13 3 -21 -2 -26 -16 -11 -35 -63 -71 -103 -71 -46 0 -82 10 -82 21 0 5 11 4
25 -1 15 -6 26 -6 30 0 4 6 -1 10 -9 10 -9 0 -16 3 -16 6 0 15 37 33 67 34 33
0 53 -15 31 -23 -7 -2 -9 -8 -4 -13 14 -15 86 77 86 109 0 18 9 36 23 48 12
10 23 18 23 19 1 0 4 -13 6 -30z m-6117 -50 c0 -96 -22 -96 -27 0 -2 57 0 70
12 70 12 0 15 -14 15 -70z m6346 45 c5 4 9 1 9 -5 0 -13 -32 -9 -42 5 -4 5 -4
13 -1 18 3 5 10 2 15 -7 5 -9 13 -14 19 -11z m-2337 -2 c4 -9 2 -21 -4 -27
-12 -12 -15 -8 -24 22 -9 27 18 32 28 5z m1414 -4 c1 -9 -6 -15 -18 -16 -22
-2 -23 -1 -14 22 8 19 28 15 32 -6z m252 6 c7 -8 10 -22 6 -30 -3 -8 -1 -26 4
-40 12 -30 -4 -34 -20 -5 -14 26 -26 25 -33 -1 -7 -26 -27 -16 -22 11 2 11 0
22 -5 25 -13 8 0 43 19 48 30 8 39 7 51 -8z m-6210 -5 c0 -5 -5 -10 -11 -10
-5 0 -7 5 -4 10 3 6 8 10 11 10 2 0 4 -4 4 -10z m478 -19 c-10 -17 -10 -25 0
-41 13 -22 3 -27 -16 -8 -17 17 -15 38 5 60 21 23 28 16 11 -11z m112 -21 c0
-10 -7 -23 -16 -31 -13 -11 -14 -9 -9 13 4 15 1 37 -6 50 -12 23 -12 23 10 4
11 -11 21 -27 21 -36z m1960 42 c0 -5 -7 -9 -15 -9 -8 0 -12 4 -9 9 3 4 9 8
15 8 5 0 9 -4 9 -8z m1676 -9 c17 -17 16 -18 -15 -21 -36 -4 -58 9 -47 27 11
17 42 13 62 -6z m-1952 -13 c18 -18 -2 -22 -28 -5 -14 10 -33 15 -41 11 -10
-4 -14 -2 -9 5 7 12 63 4 78 -11z m186 2 c0 -4 -9 -8 -19 -8 -15 0 -17 3 -9
13 10 12 28 9 28 -5z m3874 3 c-4 -8 -8 -15 -10 -15 -2 0 -4 7 -4 15 0 8 4 15
10 15 5 0 7 -7 4 -15z m-5494 -15 c8 -14 8 -26 0 -40 -19 -35 -80 -20 -80 20
0 40 61 55 80 20z m1665 -10 c-4 -12 -9 -19 -12 -17 -3 3 -2 15 2 27 4 12 9
19 12 17 3 -3 2 -15 -2 -27z m605 26 c0 -3 -4 -8 -10 -11 -5 -3 -10 -1 -10 4
0 6 5 11 10 11 6 0 10 -2 10 -4z m1377 -21 c11 -25 2 -42 -17 -30 -12 7 -14
55 -2 55 4 0 12 -11 19 -25z m1064 4 c10 -19 9 -20 -13 -14 -29 9 -31 11 -23
24 10 17 23 13 36 -10z m49 11 c0 -5 -2 -10 -4 -10 -3 0 -8 5 -11 10 -3 6 -1
10 4 10 6 0 11 -4 11 -10z m117 -5 c2 -6 -10 -16 -26 -22 -29 -10 -29 -10 -18
14 10 23 37 28 44 8z m123 0 c-7 -9 -15 -13 -17 -11 -7 7 7 26 19 26 6 0 6 -6
-2 -15z m200 5 c0 -5 -4 -10 -10 -10 -5 0 -10 5 -10 10 0 6 5 10 10 10 6 0 10
-4 10 -10z m-3170 -26 c0 -58 -96 -109 -130 -69 -11 13 -6 15 40 15 42 0 51 3
46 15 -3 9 0 15 9 15 8 0 15 5 15 10 0 6 -7 10 -16 10 -14 0 -14 3 -4 15 20
24 40 18 40 -11z m357 6 c1 -11 -4 -20 -12 -20 -7 0 -23 -16 -35 -35 -47 -76
-108 -96 -155 -50 -28 28 -34 45 -9 24 9 -7 18 -9 22 -3 4 5 24 17 45 27 21 9
35 22 32 27 -3 6 1 10 10 10 12 0 15 -6 9 -22 -6 -22 -6 -22 13 -5 11 9 25 17
32 17 6 0 17 11 23 25 14 30 23 32 25 5z m1778 -4 c15 -22 12 -76 -3 -76 -15
0 -52 46 -52 65 0 42 31 48 55 11z m2705 2 c0 -13 -7 -31 -14 -40 -12 -16 -15
-16 -44 9 -18 14 -32 29 -32 34 0 9 25 16 63 18 22 1 27 -3 27 -21z m-7703
-10 c-3 -8 -6 -5 -6 6 -1 11 2 17 5 13 3 -3 4 -12 1 -19z m1793 12 c0 -5 -4
-10 -10 -10 -5 0 -10 5 -10 10 0 6 5 10 10 10 6 0 10 -4 10 -10z m3343 3 c4
-3 -3 -17 -15 -30 -19 -21 -20 -23 -4 -23 15 0 16 -3 6 -15 -16 -20 -46 -19
-54 1 -13 34 44 91 67 67z m47 -3 c0 -5 -4 -10 -10 -10 -5 0 -10 5 -10 10 0 6
5 10 10 10 6 0 10 -4 10 -10z m772 -17 c-5 -28 -32 -53 -32 -30 0 8 -7 17 -15
21 -24 9 -7 31 23 31 24 0 28 -4 24 -22z m1027 -17 c-9 -8 -10 -7 -5 7 3 10 7
24 7 30 1 7 3 4 6 -7 3 -10 -1 -23 -8 -30z m-6247 5 c2 -17 -2 -25 -14 -27
-21 -3 -21 -2 -6 31 13 29 15 29 20 -4z m153 -22 c-11 -17 -35 4 -35 30 l1 26
19 -24 c11 -12 18 -27 15 -32z m419 44 c-5 -5 -12 -12 -16 -18 -4 -6 -8 -2 -8
8 0 9 7 17 17 17 9 0 12 -3 7 -7z m85 -6 c8 -11 4 -14 -20 -14 -29 0 -30 2
-13 14 10 7 19 13 20 13 1 0 7 -6 13 -13z m824 -12 c10 -14 13 -26 7 -30 -5
-3 -10 -1 -10 6 0 7 -7 21 -17 31 -9 10 -12 18 -7 18 5 0 17 -11 27 -25z
m2031 -40 c-5 -13 -8 -14 -15 -3 -5 7 -21 12 -39 10 -16 -2 -30 0 -30 5 0 18
19 36 31 31 25 -10 34 -7 31 10 -1 9 5 5 13 -10 8 -15 12 -34 9 -43z m2073 33
c-3 -7 -5 -2 -5 12 0 14 2 19 5 13 2 -7 2 -19 0 -25z m1085 -23 c-10 -16 -33
-38 -52 -48 -19 -10 -34 -22 -32 -27 1 -6 -7 -10 -18 -10 -11 0 -20 6 -20 14
0 8 -11 17 -25 20 -13 3 -30 16 -36 28 -10 19 -9 20 12 13 59 -18 106 -6 152
42 29 29 42 8 19 -32z m-5956 27 c-10 -2 -22 0 -28 6 -6 6 0 7 19 4 21 -5 23
-7 9 -10z m5358 2 c4 -10 14 -14 26 -11 23 6 23 6 10 -28 -7 -18 -15 -25 -26
-21 -8 3 -12 2 -9 -4 10 -15 -43 -36 -57 -22 -8 8 -16 5 -29 -11 -15 -19 -20
-20 -31 -8 -7 8 -8 12 -3 9 6 -3 26 10 45 29 24 23 29 32 15 27 -11 -4 -26
-12 -33 -17 -9 -7 -20 -3 -37 13 -31 29 -25 38 25 35 22 -1 48 4 57 11 24 18
40 17 47 -2z m-4344 -9 c-7 -9 -15 -13 -17 -11 -7 7 7 26 19 26 6 0 6 -6 -2
-15z m2094 0 c13 -13 13 -20 3 -36 -12 -20 -12 -20 -21 5 -6 14 -13 26 -18 26
-4 0 -8 5 -8 10 0 15 27 12 44 -5z m1166 -5 c8 -16 8 -20 -4 -20 -10 0 -13 6
-10 15 5 11 1 14 -12 9 -16 -5 -16 -4 -4 5 19 14 18 14 30 -9z m1155 11 c3 -5
1 -12 -5 -16 -5 -3 -10 1 -10 9 0 18 6 21 15 7z m170 -1 c-3 -5 -11 -10 -16
-10 -6 0 -7 5 -4 10 3 6 11 10 16 10 6 0 7 -4 4 -10z m-7055 -10 c0 -5 -4 -10
-10 -10 -5 0 -10 5 -10 10 0 6 5 10 10 10 6 0 10 -4 10 -10z m5876 -1 c3 -6 2
-15 -3 -20 -5 -5 -14 0 -21 11 -10 17 -10 20 2 20 8 0 18 -5 22 -11z m-3606
-3 c0 -3 -4 -8 -10 -11 -5 -3 -10 -1 -10 4 0 6 5 11 10 11 6 0 10 -2 10 -4z
m5324 -12 c9 -24 7 -27 -9 -10 -17 17 -19 26 -6 26 5 0 12 -7 15 -16z m-3087
0 c-3 -3 -12 -4 -19 -1 -8 3 -5 6 6 6 11 1 17 -2 13 -5z m723 -9 c7 -9 8 -15
2 -15 -5 0 -12 7 -16 15 -3 8 -4 15 -2 15 2 0 9 -7 16 -15z m595 -5 c16 -17
16 -20 3 -15 -9 4 -19 13 -22 21 -7 19 -2 18 19 -6z m-2835 -6 c0 -8 -4 -12
-10 -9 -5 3 -10 10 -10 16 0 5 5 9 10 9 6 0 10 -7 10 -16z m-2105 -14 c-9 -10
-33 -24 -51 -30 -29 -10 -41 -8 -79 10 -25 12 -45 26 -45 31 0 5 43 9 97 9 95
0 96 0 78 -20z m6138 13 c-13 -2 -33 -2 -45 0 -13 2 -3 4 22 4 25 0 35 -2 23
-4z m-342 -21 c-7 -2 -18 1 -23 6 -8 8 -4 9 13 5 13 -4 18 -8 10 -11z m-3667
-10 c3 -5 -1 -9 -9 -9 -8 0 -12 4 -9 9 3 4 7 8 9 8 2 0 6 -4 9 -8z m1479 1
c-7 -2 -21 -2 -30 0 -10 3 -4 5 12 5 17 0 24 -2 18 -5z m4117 -13 c0 -5 -4
-10 -10 -10 -5 0 -10 5 -10 10 0 6 5 10 10 10 6 0 10 -4 10 -10z m-6930 -10
c0 -5 -10 -10 -22 -9 -22 0 -22 1 -3 9 11 5 21 9 23 9 1 1 2 -3 2 -9z m2830
-11 c0 -5 -4 -7 -10 -4 -5 3 -10 -3 -10 -13 0 -11 -7 -22 -15 -26 -9 -3 -15 0
-15 8 0 8 -3 21 -6 30 -5 13 1 16 25 16 17 0 31 -5 31 -11z m1440 -21 c29 -18
53 -41 56 -54 3 -12 12 -25 20 -28 19 -7 18 -62 -1 -70 -8 -3 -15 -14 -15 -25
0 -18 -47 -61 -66 -61 -5 0 2 7 14 16 46 32 63 98 42 161 -8 23 -21 33 -53 44
-23 8 -48 13 -54 11 -7 -2 -13 6 -13 18 0 27 10 25 70 -12z m-3137 5 c15 -13
18 -14 12 -3 -4 8 9 -1 29 -20 40 -37 66 -79 66 -105 0 -28 -51 -97 -81 -108
-16 -6 -29 -17 -29 -24 0 -30 -98 22 -127 67 -12 19 -27 40 -33 47 -12 15 -13
33 -2 33 5 0 15 18 22 40 7 22 19 40 26 40 7 0 14 4 16 8 3 9 57 39 72 41 5 1
18 -7 29 -16z m1117 7 c0 -5 -7 -10 -15 -10 -8 0 -15 5 -15 10 0 6 7 10 15 10
8 0 15 -4 15 -10z m2576 -17 c27 -15 54 -34 61 -43 20 -25 26 -70 13 -101 -11
-26 -14 -28 -25 -13 -15 21 -50 11 -41 -11 3 -8 1 -15 -4 -15 -6 0 -10 16 -10
37 0 20 -3 33 -7 30 -3 -4 -6 -21 -5 -39 0 -29 -1 -30 -9 -10 -10 26 -22 28
-39 7 -8 -10 -17 -12 -22 -7 -12 12 11 52 29 52 7 0 13 3 13 8 0 4 11 8 25 8
14 1 25 -2 25 -7 0 -5 4 -9 9 -9 5 0 5 15 2 33 -6 30 -10 32 -44 30 -27 -2
-37 1 -37 12 0 9 -6 12 -15 9 -9 -4 -15 0 -15 7 0 11 -2 11 -10 -1 -5 -8 -12
-11 -16 -8 -4 4 7 15 25 25 17 10 31 21 31 26 0 13 16 8 66 -20z m-636 7 c0
-5 -6 -10 -13 -10 -8 0 -22 -9 -32 -20 -19 -21 -41 -28 -29 -9 5 9 64 49 72
49 1 0 2 -4 2 -10z m925 -11 c3 -4 -10 -7 -30 -6 -33 2 -42 7 -30 19 7 7 54
-3 60 -13z m-5621 -10 c23 -18 26 -28 26 -77 0 -40 -6 -66 -20 -87 -18 -27
-20 -28 -20 -8 0 35 -11 53 -41 69 -16 8 -29 21 -29 28 0 17 25 27 45 20 19
-8 20 10 1 25 -8 6 -16 21 -19 31 -7 27 22 26 57 -1z m567 -29 c39 0 51 -85
19 -137 -19 -32 -59 -51 -79 -38 -6 3 -11 -1 -11 -9 0 -10 -8 -16 -22 -15 -21
0 -21 1 -4 8 13 5 16 10 8 15 -6 4 -20 2 -31 -3 -39 -21 -107 65 -95 120 8 36
26 69 34 64 5 -3 21 2 36 10 16 8 41 15 57 15 15 0 27 5 27 11 0 7 11 0 25
-15 13 -14 29 -26 36 -26z m2474 6 c15 -4 30 -5 33 -1 3 3 -2 5 -11 5 -9 0
-17 4 -17 10 0 5 -8 6 -17 3 -17 -7 -17 -6 -1 11 23 22 50 14 89 -26 27 -29
42 -87 18 -73 -6 4 -6 -1 2 -12 16 -27 -5 -70 -51 -101 -62 -42 -137 -15 -177
63 -12 22 -13 30 -3 33 9 3 9 6 -1 13 -11 6 -10 15 4 44 9 20 21 34 26 31 5
-3 11 3 14 13 6 25 50 32 59 10 3 -9 19 -19 33 -23z m2500 34 c-3 -5 -11 -10
-16 -10 -6 0 -7 5 -4 10 3 6 11 10 16 10 6 0 7 -4 4 -10z m-6392 -40 c49 -55
30 -142 -40 -175 -33 -16 -41 -16 -77 -4 -43 15 -86 66 -86 101 0 11 7 35 16
53 33 71 134 84 187 25z m5366 14 c42 -35 39 -46 -6 -30 -21 7 -59 16 -85 20
-74 11 -61 34 19 35 31 1 49 -6 72 -25z m1731 16 c0 -5 -7 -7 -15 -4 -8 4 -15
8 -15 10 0 2 7 4 15 4 8 0 15 -4 15 -10z m-7402 -16 c38 -26 45 -51 22 -74
-11 -11 -20 -16 -20 -11 0 6 5 13 10 16 18 11 10 34 -12 37 -13 2 -22 9 -20
17 2 8 -3 11 -13 8 -15 -6 -21 4 -8 16 9 10 16 9 41 -9z m1043 -22 c-30 -42
-27 -56 20 -93 37 -29 39 -33 24 -48 -13 -13 -17 -14 -24 -2 -5 7 -14 12 -21
9 -9 -3 -8 -9 5 -21 9 -10 15 -21 11 -24 -12 -12 -55 20 -71 53 -9 19 -20 34
-25 34 -26 0 -4 43 42 84 57 50 71 53 39 8z m831 16 c-7 -7 -12 -8 -12 -2 0
14 12 26 19 19 2 -3 -1 -11 -7 -17z m1958 18 c0 -2 -8 -10 -17 -17 -16 -13
-17 -12 -4 4 13 16 21 21 21 13z m169 -40 c-2 -2 -13 8 -23 22 l-19 27 24 -22
c12 -12 21 -24 18 -27z m1096 7 c14 -14 25 -30 25 -34 0 -5 6 -9 14 -9 30 0
25 -21 -16 -64 -52 -54 -84 -64 -131 -41 -77 36 -74 136 5 169 39 17 72 10
103 -21z m853 9 c17 -22 15 -32 -7 -32 -11 0 -22 -9 -26 -19 -3 -11 -12 -22
-20 -25 -10 -4 -15 -20 -15 -51 0 -50 -14 -54 -23 -6 -5 25 -10 28 -33 23 -25
-4 -26 -3 -21 19 4 13 7 30 7 37 0 7 4 11 9 7 5 -3 13 0 17 6 5 8 -1 10 -20 7
-14 -3 -26 -2 -26 2 0 12 48 40 69 40 11 0 22 4 25 9 8 13 48 2 64 -17z
m-2258 3 c0 -8 8 -15 18 -15 14 0 14 -2 3 -9 -9 -6 -19 -4 -28 4 -15 16 -17
35 -3 35 6 0 10 -7 10 -15z m3097 -7 c18 -13 36 -31 39 -41 16 -49 -27 -98
-66 -77 -28 15 -25 34 6 49 15 6 24 14 21 17 -3 3 -15 1 -26 -6 -26 -14 -29 5
-4 32 9 10 11 18 6 18 -6 0 -16 -7 -23 -15 -12 -14 -15 -14 -31 1 -11 10 -21
15 -24 12 -3 -3 1 -11 10 -18 8 -7 15 -19 15 -27 0 -11 -4 -11 -21 -3 -11 6
-25 10 -31 8 -6 -2 3 -10 20 -17 38 -16 41 -34 7 -49 -15 -7 -25 -8 -25 -2 0
6 -7 10 -15 10 -17 0 -30 40 -21 67 9 27 66 63 100 63 16 0 45 -10 63 -22z
m-5417 -3 c0 -18 -37 -20 -43 -2 -3 8 -10 7 -26 -7 -23 -21 -29 -14 -8 9 17
20 77 20 77 0z m3130 11 c0 -3 -4 -8 -10 -11 -5 -3 -10 -1 -10 4 0 6 5 11 10
11 6 0 10 -2 10 -4z m997 -26 c-4 -16 1 -22 26 -29 18 -4 31 -13 30 -19 -2 -6
-7 -29 -12 -52 -9 -39 -8 -40 23 -49 40 -10 52 0 60 50 7 41 7 41 41 36 26 -4
35 -2 38 11 3 9 5 2 6 -17 1 -26 -7 -41 -35 -67 -49 -47 -108 -48 -158 -4 -41
36 -52 76 -36 125 12 37 26 49 17 15z m903 -16 c0 -35 -15 -30 -18 7 -2 19 2
28 8 24 5 -3 10 -17 10 -31z m1203 22 c27 -20 20 -26 -20 -20 -44 7 -47 9 -38
23 9 15 36 13 58 -3z m-5666 -12 c10 -27 -14 -40 -37 -19 -16 14 -17 20 -8 27
20 12 38 9 45 -8z m1743 -15 c0 -25 -14 -31 -45 -19 -21 8 -24 13 -16 29 13
24 61 17 61 -10z m897 9 c-3 -8 -6 -5 -6 6 -1 11 2 17 5 13 3 -3 4 -12 1 -19z
m1194 5 c-13 -26 -7 -88 13 -118 19 -29 53 -45 97 -45 19 0 29 -5 29 -15 0
-19 -30 -19 -56 0 -10 8 -26 15 -34 15 -17 0 -80 90 -80 115 0 9 7 27 16 40
19 29 29 34 15 8z m599 8 c0 -5 -7 -14 -15 -21 -19 -15 -20 -34 -2 -27 10 4
13 -6 13 -34 0 -51 -24 -49 -45 4 -12 32 -12 42 -1 62 13 23 50 35 50 16z
m693 -13 c3 -11 0 -18 -9 -18 -8 0 -14 5 -14 10 0 6 -5 10 -11 10 -8 0 -10
-18 -7 -55 4 -51 3 -55 -17 -55 -20 0 -21 4 -17 55 4 45 2 55 -11 55 -8 0 -18
-6 -20 -12 -3 -8 -6 -6 -6 4 -1 16 2 17 96 24 6 0 14 -8 16 -18z m-3578 -43
c0 -25 -3 -45 -7 -45 -5 0 -8 20 -8 45 0 25 3 45 8 45 4 0 7 -20 7 -45z m1117
20 c-2 -14 -8 -25 -12 -25 -4 0 -5 11 -2 25 2 14 8 25 12 25 4 0 5 -11 2 -25z
m-4112 -6 c0 -5 -4 -9 -10 -9 -5 0 -10 7 -10 16 0 8 5 12 10 9 6 -3 10 -10 10
-16z m4200 17 c0 -3 -4 -8 -10 -11 -5 -3 -10 -1 -10 4 0 6 5 11 10 11 6 0 10
-2 10 -4z m-900 -39 c0 -18 -2 -19 -10 -7 -13 20 -13 43 0 35 6 -3 10 -16 10
-28z m778 8 c14 -30 9 -32 -18 -5 -23 23 -25 30 -7 30 8 0 19 -11 25 -25z
m172 15 c0 -5 -4 -10 -10 -10 -5 0 -10 5 -10 10 0 6 5 10 10 10 6 0 10 -4 10
-10z m2450 0 c0 -5 -2 -10 -4 -10 -3 0 -8 5 -11 10 -3 6 -1 10 4 10 6 0 11 -4
11 -10z m92 -4 c11 -11 15 -11 25 3 11 15 12 15 13 -1 0 -22 -19 -27 -54 -15
-20 7 -30 6 -36 -3 -5 -9 -9 -9 -14 -1 -4 6 3 15 16 20 32 13 35 13 50 -3z
m-5411 -6 c16 -9 17 -14 7 -30 -14 -22 -38 -9 -38 21 0 22 4 23 31 9z m2136
-22 c-3 -7 -5 -2 -5 12 0 14 2 19 5 13 2 -7 2 -19 0 -25z m373 28 c0 -2 -7 -7
-16 -10 -8 -3 -12 -2 -9 4 6 10 25 14 25 6z m3040 -6 c0 -5 -17 -10 -37 -10
-28 0 -34 3 -23 10 20 13 60 13 60 0z m-5433 -16 c8 -21 -13 -42 -28 -27 -13
13 -5 43 11 43 6 0 13 -7 17 -16z m1745 -16 c5 -13 -3 -25 -38 -61 -33 -35
-64 -58 -64 -47 0 6 -18 10 -40 10 -30 0 -42 5 -51 21 -11 21 -10 21 27 14 22
-3 40 -11 42 -16 2 -5 11 -2 19 7 9 8 22 13 29 10 8 -3 14 -1 14 5 0 6 5 7 10
4 6 -3 10 1 10 10 0 9 5 13 11 10 6 -4 10 -1 8 6 -4 36 14 56 23 27z m598 -8
c0 -5 -5 -10 -11 -10 -5 0 -7 5 -4 10 3 6 8 10 11 10 2 0 4 -4 4 -10z m-2870
-10 c0 -16 -59 -70 -75 -70 -8 0 -15 -7 -15 -15 0 -8 -7 -15 -15 -15 -18 0
-20 16 -2 23 6 3 2 6 -11 6 -28 1 -62 18 -62 31 0 5 15 7 33 4 39 -6 93 9 90
24 -2 6 3 9 11 6 8 -3 17 -1 21 5 8 14 25 14 25 1z m470 0 c0 -5 -4 -10 -10
-10 -5 0 -10 5 -10 10 0 6 5 10 10 10 6 0 10 -4 10 -10z m4515 -10 c-9 -15 23
-31 49 -24 14 3 26 4 26 0 0 -10 -58 -36 -80 -36 -23 0 -94 30 -87 36 9 9 67
11 67 2 0 -5 4 -7 9 -4 5 3 7 16 3 28 -3 14 -2 19 7 14 6 -4 9 -11 6 -16z m79
5 c3 -8 1 -15 -4 -15 -6 0 -10 7 -10 15 0 8 2 15 4 15 2 0 6 -7 10 -15z m746
-10 c0 -8 -4 -15 -10 -15 -5 0 -10 7 -10 15 0 8 5 15 10 15 6 0 10 -7 10 -15z
m73 1 c3 -8 0 -17 -8 -19 -15 -7 -25 1 -25 20 0 17 26 17 33 -1z m-593 -17 c0
-5 -15 -9 -32 -9 -31 1 -32 2 -15 15 19 14 47 10 47 -6z m-6445 -39 c9 -14
-40 -34 -62 -26 -15 7 -14 9 12 21 38 17 42 17 50 5z m4195 -17 c8 -16 16 -32
19 -37 2 -5 -7 -6 -21 -3 -34 9 -39 1 -21 -34 18 -35 9 -52 -11 -23 -8 10 -18
16 -22 12 -4 -4 -13 -3 -21 3 -20 17 -16 1 7 -28 22 -28 26 -58 10 -68 -5 -3
-10 -1 -10 5 0 6 -9 20 -20 32 -11 12 -20 30 -20 41 0 16 -3 17 -15 7 -8 -7
-15 -25 -15 -40 0 -33 -34 -70 -43 -46 -4 9 -1 18 4 22 6 3 8 18 4 32 -5 21
-4 24 8 13 12 -10 17 -6 25 18 6 16 24 40 41 52 18 13 30 28 27 34 -2 7 7 10
27 7 25 -4 29 -2 24 12 -11 27 9 18 23 -11z m-2040 -13 c0 -5 -5 -10 -11 -10
-5 0 -7 5 -4 10 3 6 8 10 11 10 2 0 4 -4 4 -10z m1766 -6 c-3 -7 0 -15 7 -18
7 -2 3 -5 -8 -6 -20 -1 -20 -1 0 -15 19 -15 19 -15 -2 -37 -21 -20 -23 -20
-47 -5 -34 23 -39 21 -32 -6 4 -19 0 -26 -19 -35 -23 -11 -25 -9 -25 12 0 13
9 35 21 50 22 28 17 36 -8 11 -8 -8 -19 -12 -25 -8 -7 4 0 15 18 30 16 13 34
27 39 32 17 15 87 11 81 -5z m871 -19 c23 -16 47 -43 53 -59 6 -18 15 -26 24
-23 11 4 14 -2 14 -24 -1 -29 -23 -37 -23 -8 0 19 -43 61 -55 54 -6 -4 -10 0
-11 7 0 7 -5 -3 -11 -22 -5 -19 -14 -41 -20 -47 -15 -18 -77 -16 -84 2 -4 8
-10 15 -15 15 -5 0 -4 -11 1 -25 9 -23 8 -25 -10 -15 -24 13 -26 3 -3 -22 9
-10 13 -21 10 -24 -3 -4 -17 6 -31 21 -20 21 -26 39 -26 71 0 37 6 49 43 88
51 54 81 56 144 11z m1663 25 c0 -6 10 -15 23 -20 19 -7 19 -9 3 -9 -14 -1
-16 -4 -7 -14 17 -22 -8 -44 -59 -50 -24 -3 -46 -10 -48 -15 -1 -5 -10 -18
-18 -28 -14 -18 -15 -17 -12 18 2 20 0 34 -4 32 -4 -3 -8 0 -8 6 0 6 -6 8 -12
5 -7 -4 5 9 27 29 22 20 48 36 57 36 10 0 18 5 18 10 0 6 9 10 20 10 11 0 20
-5 20 -10z m-4260 -20 c0 -5 -8 -10 -17 -10 -24 -1 -82 -33 -82 -45 0 -5 -4
-11 -10 -13 -16 -5 -13 10 8 35 11 13 36 27 58 32 21 5 39 9 41 10 1 1 2 -3 2
-9z m290 -25 c0 -2 -6 -3 -12 -1 -7 3 -26 7 -42 11 -22 5 -26 9 -16 15 12 8
70 -13 70 -25z m15 25 c3 -6 -1 -7 -9 -4 -18 7 -21 14 -7 14 6 0 13 -4 16 -10z
m2515 -2 c0 -9 3 -9 11 -1 9 9 18 5 37 -12 14 -13 28 -22 31 -20 14 8 37 -41
31 -65 l-7 -25 -8 28 c-5 19 -12 26 -22 23 -21 -8 -53 12 -53 33 0 11 -7 18
-16 17 -9 0 -18 7 -19 17 -2 9 1 17 6 17 5 0 9 -5 9 -12z m-4442 -43 c34 -39
31 -104 -7 -144 -24 -26 -36 -31 -76 -31 -38 0 -52 5 -75 29 -64 64 -47 147
36 176 47 16 91 5 122 -30z m1071 39 l32 -7 -34 -31 c-19 -17 -36 -37 -38 -45
-3 -8 -10 -11 -17 -7 -16 10 -15 39 1 33 7 -3 21 9 30 26 14 24 15 28 3 17
-10 -7 -26 -10 -43 -5 -21 5 -24 8 -12 16 17 10 36 11 78 3z m3343 -22 c6 -21
-14 -42 -40 -42 -10 0 -23 -5 -29 -11 -23 -23 -7 20 17 46 28 29 46 32 52 7z
m-3887 -2 c4 -6 12 -7 18 -4 7 4 9 4 5 -1 -5 -5 -34 -10 -65 -12 -60 -4 -76
-16 -67 -47 4 -11 2 -16 -4 -12 -5 3 -12 -3 -15 -14 -3 -11 -13 -20 -24 -20
-11 0 -14 3 -7 8 6 4 17 24 23 45 8 22 23 43 39 52 31 17 88 20 97 5z m421
-15 c-20 -21 -20 -39 0 -59 12 -12 12 -16 2 -17 -10 0 -10 -2 0 -6 21 -8 13
-20 -13 -20 -21 0 -25 4 -25 31 0 31 36 103 47 93 3 -4 -2 -13 -11 -22z m199
15 c3 -5 1 -10 -4 -10 -6 0 -11 5 -11 10 0 6 2 10 4 10 3 0 8 -4 11 -10z m716
-5 c19 -8 29 -14 23 -15 -6 0 -16 -19 -23 -42 l-13 -41 -19 42 c-10 24 -24 41
-30 39 -15 -5 -15 -7 0 -60 7 -26 10 -55 7 -64 -6 -16 -8 -15 -21 2 -30 40 -8
154 30 154 7 0 28 -7 46 -15z m3454 5 c-3 -5 -10 -10 -16 -10 -5 0 -9 5 -9 10
0 6 7 10 16 10 8 0 12 -4 9 -10z m-3574 -38 c8 -67 3 -84 -37 -130 -40 -45
-43 -46 -94 -45 -31 0 -56 6 -61 14 -13 22 0 29 40 23 44 -7 74 6 98 42 18 28
19 83 3 115 -11 20 -11 20 19 4 17 -8 31 -19 32 -23z m3188 11 c-13 -16 -27
-32 -31 -37 -5 -6 -8 -5 -8 2 0 14 44 62 56 62 4 0 -3 -12 -17 -27z m-2704 5
c10 -10 14 -55 6 -67 -13 -20 -81 -24 -102 -5 -17 16 -15 63 5 77 10 7 83 3
91 -5z m853 -3 c2 -2 -6 -17 -17 -34 -19 -26 -20 -34 -10 -53 12 -22 13 -21
31 21 10 23 15 47 12 52 -3 5 2 9 10 9 9 0 16 -2 16 -5 0 -7 -50 -118 -56
-124 -3 -3 -14 5 -23 18 l-19 24 -6 -21 c-4 -12 -13 -22 -19 -22 -11 0 -82
120 -75 124 28 17 62 24 102 20 27 -2 51 -6 54 -9z m-1585 -16 c3 -13 1 -19
-6 -16 -15 5 -22 37 -9 37 5 0 12 -9 15 -21z m167 12 c18 -5 25 -14 25 -31 0
-24 -2 -25 -77 -26 -64 0 -78 3 -78 15 0 24 16 44 28 37 6 -3 13 -2 17 4 7 11
47 12 85 1z m2196 -6 c26 -13 30 -13 40 0 16 21 34 19 34 -5 0 -11 -6 -20 -13
-20 -17 0 -35 -35 -40 -75 l-4 -30 -2 31 c0 18 -12 43 -26 58 -14 15 -25 34
-25 42 0 17 1 17 36 -1z m1134 6 c0 -5 -12 -24 -27 -42 -18 -21 -24 -34 -15
-37 22 -7 13 -20 -18 -24 -37 -5 -37 2 -5 40 29 35 31 42 8 42 -21 0 -6 16 22
23 32 8 35 7 35 -2z m-4526 -51 c1 -35 5 -45 19 -48 17 -3 19 2 15 44 -2 38 0
49 13 52 12 2 15 -7 15 -45 -1 -35 3 -47 12 -45 8 1 11 -2 7 -8 -3 -6 -10 -8
-15 -5 -5 3 -11 1 -15 -5 -3 -5 -22 -10 -40 -10 -28 0 -36 4 -39 23 -18 86
-16 100 13 95 10 -2 15 -17 15 -48z m236 43 c0 -5 -7 -17 -15 -27 -15 -20 -20
-10 -9 18 6 16 24 22 24 9z m390 -44 c0 -45 -2 -50 -15 -39 -18 15 -19 29 -5
64 14 39 20 32 20 -25z m83 37 c6 -16 -19 -76 -33 -76 -5 0 -10 19 -10 43 0
35 3 43 19 44 11 1 22 -4 24 -11z m2407 -2 c0 -8 -4 -12 -10 -9 -5 3 -10 10
-10 16 0 5 5 9 10 9 6 0 10 -7 10 -16z m-3317 -6 c3 -10 8 -10 21 1 13 11 20
11 28 3 14 -14 14 -14 -27 -16 -16 -1 -34 -4 -40 -8 -14 -8 -75 2 -75 13 0 4
17 10 38 12 20 2 40 4 44 5 3 1 8 -4 11 -10z m2159 -25 l38 -37 38 37 c21 20
41 37 45 37 20 0 2 -31 -39 -70 l-46 -43 -48 48 c-43 42 -54 65 -32 65 3 0 23
-17 44 -37z m755 -3 c0 -22 -4 -40 -8 -40 -8 0 -10 59 -2 73 8 14 10 7 10 -33z
m-2840 -2 c-3 -7 -5 -2 -5 12 0 14 2 19 5 13 2 -7 2 -19 0 -25z m289 -36 c-11
-10 -14 3 -7 38 l6 35 3 -33 c2 -19 1 -36 -2 -40z m4484 52 c0 -13 -3 -14 -13
-5 -8 6 -17 8 -20 4 -4 -3 -7 -1 -7 5 0 7 9 12 20 12 12 0 20 -7 20 -16z
m-1465 -34 c7 -24 7 -24 -9 -5 -8 11 -16 27 -16 35 0 20 16 1 25 -30z m821 20
c0 -23 -33 -37 -48 -22 -16 16 -1 42 25 42 16 0 23 -6 23 -20z m1254 10 c0 -5
-4 -10 -10 -10 -5 0 -10 5 -10 10 0 6 5 10 10 10 6 0 10 -4 10 -10z m-2833
-22 c-3 -8 -6 -5 -6 6 -1 11 2 17 5 13 3 -3 4 -12 1 -19z m2104 -11 c-8 -8
-11 -7 -11 4 0 20 13 34 18 19 3 -7 -1 -17 -7 -23z m57 21 c-7 -19 -38 -22
-38 -4 0 10 9 16 21 16 12 0 19 -5 17 -12z m-4206 -40 c-6 -6 -7 0 -4 19 5 21
7 23 10 9 2 -10 0 -22 -6 -28z m-247 22 c3 -5 1 -10 -4 -10 -6 0 -11 5 -11 10
0 6 2 10 4 10 3 0 8 -4 11 -10z m3755 0 c0 -5 -4 -10 -10 -10 -5 0 -10 5 -10
10 0 6 5 10 10 10 6 0 10 -4 10 -10z m1619 -30 c-14 -39 -35 -56 -52 -42 -15
13 -31 4 -40 -20 -10 -28 -68 -24 -96 6 -23 24 -21 60 2 37 16 -16 38 -14 84
9 23 11 48 17 57 14 9 -3 19 3 26 16 16 30 31 15 19 -20z m-4962 8 c-3 -8 -6
-5 -6 6 -1 11 2 17 5 13 3 -3 4 -12 1 -19z m2419 -3 c1 -9 -12 -31 -31 -50
-29 -32 -38 -35 -87 -35 -42 0 -59 5 -72 19 -22 24 -13 43 15 32 14 -5 36 0
68 16 25 12 54 23 63 23 9 0 20 5 23 11 8 12 18 5 21 -16z m984 15 c0 -5 -4
-10 -10 -10 -5 0 -10 5 -10 10 0 6 5 10 10 10 6 0 10 -4 10 -10z m123 -24
c-44 -53 -63 -58 -63 -18 0 37 14 49 51 44 29 -4 30 -5 12 -26z m770 10 c15
-3 27 -10 27 -15 0 -10 -51 -2 -67 12 -7 5 -13 14 -13 19 0 7 4 7 13 1 6 -6
24 -13 40 -17z m-4123 5 c0 -6 -4 -13 -10 -16 -5 -3 -10 1 -10 9 0 9 5 16 10
16 6 0 10 -4 10 -9z m304 -6 c3 -8 1 -15 -4 -15 -6 0 -10 7 -10 15 0 8 2 15 4
15 2 0 6 -7 10 -15z m2204 -29 c-7 -8 -21 -23 -30 -35 -25 -30 -107 -30 -134
1 -19 21 -19 21 1 13 33 -13 75 -14 83 -2 4 7 18 12 32 12 18 1 24 5 22 18 -2
10 3 17 13 17 8 0 16 6 16 13 1 6 3 4 6 -5 2 -10 -1 -24 -9 -32z m-2608 -9 c0
-9 -49 -14 -61 -6 -10 6 -9 12 6 29 18 20 18 20 37 1 10 -11 18 -22 18 -24z
m2514 27 c3 -8 2 -12 -4 -9 -6 3 -10 10 -10 16 0 14 7 11 14 -7z m800 -1 c-2
-30 -5 -34 -14 -28 -6 4 -7 11 -4 17 5 7 1 9 -9 5 -8 -3 -17 0 -20 7 -3 7 5
12 22 11 14 0 26 -6 25 -12z m-2187 0 c-11 -10 -56 -12 -62 -2 -4 5 11 9 31 9
21 0 34 -3 31 -7z m-1765 -57 c-4 -7 -8 -5 -10 6 -2 9 -9 15 -15 12 -8 -3 -13
4 -13 15 0 20 1 20 23 -1 12 -11 19 -26 15 -32z m532 19 c17 -25 16 -25 -3
-13 -22 13 -36 38 -22 38 5 0 16 -11 25 -25z m176 15 c0 -5 -9 -14 -20 -20
-24 -13 -26 -7 -4 14 18 18 24 20 24 6z m3065 -20 c-10 -11 -22 -17 -27 -14
-5 3 -1 12 9 20 27 20 39 17 18 -6z m1105 6 c0 -9 -30 -14 -35 -6 -4 6 3 10
14 10 12 0 21 -2 21 -4z m-4850 -21 c0 -8 -4 -15 -10 -15 -5 0 -7 7 -4 15 4 8
8 15 10 15 2 0 4 -7 4 -15z m27 -7 c-3 -8 -6 -5 -6 6 -1 11 2 17 5 13 3 -3 4
-12 1 -19z m3403 -48 c0 -5 -4 -10 -10 -10 -5 0 -10 5 -10 10 0 6 5 10 10 10
6 0 10 -4 10 -10z m-3360 -60 c0 -5 -4 -10 -9 -10 -6 0 -13 5 -16 10 -3 6 1
10 9 10 9 0 16 -4 16 -10z m3680 0 c0 -5 -4 -10 -10 -10 -5 0 -10 5 -10 10 0
6 5 10 10 10 6 0 10 -4 10 -10z m2505 -50 c3 -5 -1 -10 -9 -10 -9 0 -16 5 -16
10 0 6 4 10 9 10 6 0 13 -4 16 -10z m-3440 -30 c3 -5 -1 -10 -9 -10 -9 0 -16
5 -16 10 0 6 4 10 9 10 6 0 13 -4 16 -10z m-45 -300 c0 -5 -2 -10 -4 -10 -3 0
-8 5 -11 10 -3 6 -1 10 4 10 6 0 11 -4 11 -10z m2260 -140 c0 -5 -5 -10 -11
-10 -5 0 -7 5 -4 10 3 6 8 10 11 10 2 0 4 -4 4 -10z m-115 -90 c3 -5 1 -10 -4
-10 -6 0 -11 5 -11 10 0 6 2 10 4 10 3 0 8 -4 11 -10z m-2838 -6 c-3 -3 -12
-4 -19 -1 -8 3 -5 6 6 6 11 1 17 -2 13 -5z m2603 -238 c0 -3 -4 -8 -10 -11 -5
-3 -10 -1 -10 4 0 6 5 11 10 11 6 0 10 -2 10 -4z m355 -126 c3 -5 1 -10 -4
-10 -6 0 -11 5 -11 10 0 6 2 10 4 10 3 0 8 -4 11 -10z"/>
<path d="M1065 3990 c-7 -12 2 -12 30 0 19 8 19 9 -2 9 -12 1 -25 -3 -28 -9z"/>
<path d="M6187 3914 c-14 -14 -7 -35 11 -32 9 2 17 10 17 17 0 16 -18 25 -28
15z"/>
<path d="M7605 3930 c-3 -5 1 -10 9 -10 9 0 16 5 16 10 0 6 -4 10 -9 10 -6 0
-13 -4 -16 -10z"/>
<path d="M4255 3880 c-3 -5 -1 -10 4 -10 6 0 11 5 11 10 0 6 -2 10 -4 10 -3 0
-8 -4 -11 -10z"/>
<path d="M4485 3900 c-3 -6 1 -13 10 -16 19 -8 30 0 20 15 -8 14 -22 14 -30 1z"/>
<path d="M8737 3944 c-13 -13 -7 -24 14 -24 11 0 19 5 17 12 -5 14 -22 21 -31
12z"/>
<path d="M8720 3895 c0 -18 24 -30 40 -20 8 5 8 11 -1 21 -15 19 -39 18 -39
-1z"/>
<path d="M5580 3700 c-9 -6 -10 -10 -3 -10 6 0 15 5 18 10 8 12 4 12 -15 0z"/>
<path d="M5580 3646 c0 -8 5 -18 10 -21 8 -5 7 -11 0 -20 -7 -8 -8 -20 -4 -26
5 -8 2 -10 -8 -6 -22 8 -17 -22 7 -39 39 -28 90 -15 125 31 14 20 14 20 -7 2
-21 -19 -22 -18 -16 4 5 17 3 20 -7 14 -8 -5 -11 -4 -6 3 3 6 2 13 -3 17 -7 4
-7 15 -1 30 12 31 -2 32 -24 3 l-16 -23 -16 23 c-19 25 -34 29 -34 8z"/>
<path d="M8705 3710 c-31 -13 -45 -28 -59 -58 -18 -39 -18 -42 0 -79 11 -21
32 -45 49 -53 16 -8 36 -22 43 -30 7 -8 11 -10 8 -4 -4 7 11 19 34 28 32 13
45 25 60 60 18 43 18 45 -2 85 -13 26 -27 41 -39 41 -10 0 -19 4 -19 9 0 17
-36 18 -75 1z m41 -73 c1 -12 4 -28 5 -36 5 -20 -30 -26 -37 -7 -9 22 4 66 19
66 6 0 13 -10 13 -23z"/>
<path d="M1455 3680 c10 -11 23 -20 28 -20 6 0 0 9 -13 20 -13 11 -25 20 -28
20 -3 0 3 -9 13 -20z"/>
<path d="M1295 3670 c-3 -5 -2 -10 4 -10 5 0 13 5 16 10 3 6 2 10 -4 10 -5 0
-13 -4 -16 -10z"/>
<path d="M1303 3634 c3 -3 2 -17 -3 -30 -10 -26 -1 -31 18 -12 18 18 15 48 -5
48 -9 0 -14 -3 -10 -6z"/>
<path d="M1372 3615 c-14 -31 -15 -35 -3 -35 9 0 25 49 18 56 -2 2 -9 -7 -15
-21z"/>
<path d="M1290 3556 c0 -2 7 -7 16 -10 8 -3 12 -2 9 4 -6 10 -25 14 -25 6z"/>
<path d="M1451 3540 c-30 -26 -14 -26 19 0 14 11 21 20 15 19 -5 0 -21 -9 -34
-19z"/>
<path d="M6815 3530 c-3 -5 -2 -10 4 -10 5 0 13 5 16 10 3 6 2 10 -4 10 -5 0
-13 -4 -16 -10z"/>
<path d="M1655 3651 c-3 -5 -1 -12 5 -16 12 -7 30 2 30 16 0 12 -27 12 -35 0z"/>
<path d="M1653 3595 c-8 -23 4 -30 22 -12 19 20 19 27 0 27 -9 0 -18 -7 -22
-15z"/>
<path d="M5326 3624 c-3 -9 -6 -23 -6 -31 0 -13 3 -13 15 -3 16 13 21 50 6 50
-5 0 -12 -7 -15 -16z"/>
<path d="M5343 3573 c-18 -6 -16 -23 1 -23 17 0 30 16 19 23 -5 2 -14 2 -20 0z"/>
<path d="M8460 3590 c0 -6 4 -9 9 -6 5 4 12 1 14 -4 3 -6 4 -5 3 2 -3 15 -26
23 -26 8z"/>
<path d="M3676 3371 c-4 -5 1 -8 9 -7 21 3 31 16 12 16 -9 0 -18 -4 -21 -9z"/>
<path d="M5355 3431 c-6 -5 -28 -11 -50 -13 l-40 -3 -3 -62 c-3 -63 -3 -63 25
-63 21 0 24 -3 15 -12 -32 -32 0 -71 41 -50 12 6 38 13 57 14 l35 3 0 60 c0
54 -2 60 -22 63 -19 3 -21 6 -11 22 20 31 -22 66 -47 41z m25 -31 c0 -5 -2
-10 -4 -10 -3 0 -8 5 -11 10 -3 6 -1 10 4 10 6 0 11 -4 11 -10z m-79 -19 c-8
-5 -12 -19 -9 -35 3 -14 1 -26 -3 -26 -5 0 -9 16 -9 35 0 27 4 35 18 35 13 0
14 -2 3 -9z m29 -27 c0 -8 -5 -12 -10 -9 -6 4 -8 11 -5 16 9 14 15 11 15 -7z
m90 -30 c0 -14 -3 -14 -15 -4 -8 7 -15 14 -15 16 0 2 7 4 15 4 8 0 15 -7 15
-16z m-30 -18 c0 -11 -19 -15 -25 -6 -3 5 1 10 9 10 9 0 16 -2 16 -4z m19 -37
c-19 -12 -24 -2 -8 17 9 11 14 13 17 4 3 -7 -2 -16 -9 -21z m-79 -19 c0 -5 -2
-10 -4 -10 -3 0 -8 5 -11 10 -3 6 -1 10 4 10 6 0 11 -4 11 -10z"/>
<path d="M5620 3290 c0 -5 7 -10 15 -10 8 0 15 5 15 10 0 6 -7 10 -15 10 -8 0
-15 -4 -15 -10z"/>
<path d="M6192 3361 c4 -13 18 -16 19 -4 0 4 -5 9 -11 12 -7 2 -11 -2 -8 -8z"/>
<path d="M6125 3349 c-9 -14 3 -59 15 -59 6 0 10 16 10 35 0 34 -12 46 -25 24z"/>
<path d="M2007 3333 c-12 -11 -8 -23 8 -23 8 0 15 7 15 15 0 16 -12 20 -23 8z"/>
<path d="M4164 3122 c-88 -70 -16 -197 87 -155 64 25 78 95 30 144 -34 34 -84
39 -117 11z"/>
<path d="M5110 3136 c0 -9 5 -16 10 -16 6 0 10 4 10 9 0 6 -4 13 -10 16 -5 3
-10 -1 -10 -9z"/>
<path d="M8440 3110 c-8 -5 -12 -12 -9 -15 4 -3 12 1 19 10 14 17 11 19 -10 5z"/>
<path d="M8404 3065 c-6 -14 3 -52 10 -44 2 2 6 16 10 32 7 29 -10 39 -20 12z"/>
<path d="M1885 2860 c-3 -5 -1 -10 4 -10 6 0 11 5 11 10 0 6 -2 10 -4 10 -3 0
-8 -4 -11 -10z"/>
<path d="M3880 2776 c0 -8 4 -17 9 -21 6 -3 9 4 8 15 -1 23 -17 28 -17 6z"/>
<path d="M3945 2758 c-8 -17 -18 -22 -38 -21 -15 1 -25 -2 -22 -8 9 -14 51
-11 65 6 6 8 10 21 8 30 -2 12 -5 11 -13 -7z"/>
<path d="M1410 2851 c0 -16 29 -33 42 -25 9 5 8 2 -2 -12 -8 -10 -16 -21 -17
-23 -1 -2 -9 2 -17 8 -17 14 -60 5 -50 -11 4 -6 2 -13 -3 -17 -7 -3 -7 -15 -2
-28 9 -24 52 -32 64 -13 3 6 -1 10 -9 10 -9 0 -16 7 -16 15 0 10 10 15 30 15
34 0 38 -14 14 -48 -23 -33 -82 -30 -117 6 -15 16 -24 31 -20 35 3 4 1 7 -5 7
-36 0 22 -82 66 -93 25 -6 92 12 92 25 0 4 0 11 -1 14 0 4 5 10 12 15 10 6 9
13 -4 33 -19 29 -22 46 -7 46 6 0 10 -8 11 -17 0 -10 3 -13 5 -6 7 17 -14 53
-31 53 -8 0 -15 5 -15 10 0 6 -4 10 -10 10 -5 0 -10 -4 -10 -9z m-7 -58 c4 -3
2 -12 -4 -19 -6 -8 -9 -21 -5 -29 3 -8 1 -15 -4 -15 -15 0 -21 18 -14 45 6 25
15 31 27 18z"/>
<path d="M8120 2860 c-9 -6 -10 -10 -3 -10 6 0 15 5 18 10 8 12 4 12 -15 0z"/>
<path d="M2310 2860 c0 -5 5 -10 11 -10 5 0 7 5 4 10 -3 6 -8 10 -11 10 -2 0
-4 -4 -4 -10z"/>
<path d="M2284 2716 c-9 -20 -9 -23 2 -19 8 3 14 14 14 24 0 25 -3 24 -16 -5z"/>
<path d="M2238 2683 c7 -3 16 -2 19 1 4 3 -2 6 -13 5 -11 0 -14 -3 -6 -6z"/>
<path d="M4480 2774 c-10 -31 -10 -39 4 -53 15 -14 18 -14 26 -1 15 23 23 58
16 75 -10 27 -34 16 -46 -21z"/>
<path d="M3014 2544 c3 -9 6 -20 6 -25 0 -5 8 -1 18 9 22 20 19 32 -10 32 -14
0 -18 -5 -14 -16z"/>
<path d="M1334 2574 c-17 -14 -17 -15 -1 -10 16 5 18 2 12 -27 -4 -17 -13 -39
-20 -47 -13 -16 -10 -40 6 -40 6 0 9 6 8 13 -1 6 6 31 16 55 20 47 51 59 43
17 -3 -14 -1 -28 3 -31 5 -3 2 -12 -6 -20 -20 -20 -19 -34 3 -36 9 0 23 -2 29
-2 7 -1 13 -6 13 -11 -1 -6 -30 -9 -71 -9 -54 1 -67 -1 -59 -10 6 -8 31 -12
67 -10 56 3 57 3 19 -7 -54 -13 -57 -19 -10 -19 30 0 48 7 72 29 46 43 42 57
-14 52 -57 -4 -52 14 6 24 30 5 40 11 40 26 0 23 -7 24 -26 4 -21 -20 -44 -19
-44 3 0 11 8 18 21 19 29 2 35 11 20 26 -11 9 -14 9 -18 0 -7 -20 -23 -15 -23
7 0 16 -7 20 -33 20 -18 0 -42 -7 -53 -16z"/>
<path d="M1290 2524 c-13 -34 -13 -71 1 -80 9 -5 10 1 5 20 -4 16 -1 38 9 56
9 18 11 30 5 30 -6 0 -15 -12 -20 -26z"/>
<path d="M7520 2530 c-42 -79 44 -162 131 -126 46 19 64 53 54 103 l-7 38 -14
-26 c-21 -41 -43 -44 -78 -11 -40 38 -73 46 -86 22z"/>
<path d="M8150 2522 c-8 -9 -14 -21 -12 -25 1 -5 -2 -15 -7 -21 -8 -9 -6 -19
4 -32 13 -17 14 -17 15 -1 0 20 11 22 28 5 9 -9 12 -9 12 1 0 7 6 11 15 8 17
-7 30 9 15 18 -16 10 -12 25 8 26 10 0 12 3 5 6 -7 2 -13 11 -13 19 0 17 -16
18 -24 2 -5 -10 -7 -10 -12 0 -8 16 -16 15 -34 -6z m35 -22 c3 -5 1 -10 -4
-10 -6 0 -11 5 -11 10 0 6 2 10 4 10 3 0 8 -4 11 -10z"/>
<path d="M4801 2440 c-8 -4 -20 -6 -28 -3 -7 3 -13 -2 -13 -11 0 -22 46 -21
54 0 8 21 4 25 -13 14z"/>
<path d="M5295 2540 c-3 -5 -1 -10 6 -10 10 0 10 -3 1 -12 -18 -18 -15 -28 8
-28 25 0 36 25 20 45 -14 17 -26 19 -35 5z"/>
<path d="M5372 2541 c-21 -13 -10 -46 16 -49 23 -4 30 12 10 22 -10 5 -10 7 0
12 6 3 10 10 6 15 -7 11 -15 11 -32 0z"/>
<path d="M5290 2460 c0 -6 11 -15 25 -20 15 -6 25 -17 25 -30 0 -11 5 -20 10
-20 6 0 10 11 10 25 0 18 5 25 19 25 20 0 37 17 28 27 -3 3 -11 2 -18 -3 -16
-10 -70 -11 -76 -2 -6 12 -23 10 -23 -2z"/>
<path d="M7855 2490 c-3 -5 1 -10 9 -10 9 0 16 5 16 10 0 6 -4 10 -9 10 -6 0
-13 -4 -16 -10z"/>
<path d="M2490 2485 c0 -18 16 -20 23 -2 4 9 8 9 15 -2 11 -15 36 -6 27 10
-10 16 -65 11 -65 -6z"/>
<path d="M7518 2163 c7 -3 16 -2 19 1 4 3 -2 6 -13 5 -11 0 -14 -3 -6 -6z"/>
<path d="M6432 2211 c-7 -20 -7 -32 1 -40 19 -19 37 -13 33 12 -3 12 -5 30 -5
40 -1 27 -18 20 -29 -12z"/>
<path d="M6505 2223 c-5 -10 -7 -24 -6 -32 1 -7 -2 -10 -8 -6 -7 4 -8 0 -5
-10 4 -9 13 -14 21 -11 8 3 17 6 19 6 7 0 4 45 -5 58 -6 11 -10 10 -16 -5z"/>
<path d="M1067 2299 c7 -7 15 -10 18 -7 3 3 -2 9 -12 12 -14 6 -15 5 -6 -5z"/>
<path d="M1110 2251 c0 -5 6 -14 14 -20 12 -10 13 -8 9 8 -5 21 -23 30 -23 12z"/>
<path d="M1070 2186 c0 -8 4 -17 9 -20 5 -4 7 3 4 14 -6 23 -13 26 -13 6z"/>
<path d="M1138 2103 c7 -3 16 -2 19 1 4 3 -2 6 -13 5 -11 0 -14 -3 -6 -6z"/>
<path d="M2155 2231 c-6 -11 9 -23 19 -14 9 9 7 23 -3 23 -6 0 -12 -4 -16 -9z"/>
<path d="M4770 2206 c0 -9 7 -16 16 -16 17 0 14 22 -4 28 -7 2 -12 -3 -12 -12z"/>
<path d="M2288 1986 c-10 -7 -18 -20 -18 -29 0 -18 16 -31 24 -19 5 8 16 62
13 62 -1 0 -10 -7 -19 -14z"/>
<path d="M2162 1966 c2 -16 9 -31 16 -34 17 -5 15 20 -3 44 -15 18 -15 18 -13
-10z"/>
<path d="M2190 1885 c-7 -9 -10 -18 -7 -21 10 -11 37 5 37 21 0 19 -14 19 -30
0z"/>
<path d="M2252 1889 c2 -7 10 -15 17 -17 8 -3 12 1 9 9 -2 7 -10 15 -17 17 -8
3 -12 -1 -9 -9z"/>
<path d="M2779 1938 c-1 -10 -2 -23 -3 -30 -1 -14 49 -29 70 -21 21 8 6 23
-22 23 -16 0 -28 8 -34 23 -7 18 -9 19 -11 5z"/>
<path d="M7620 1810 c0 -5 5 -10 10 -10 6 0 10 5 10 10 0 6 -4 10 -10 10 -5 0
-10 -4 -10 -10z"/>
<path d="M7320 1945 c0 -9 5 -15 11 -13 6 2 11 8 11 13 0 5 -5 11 -11 13 -6 2
-11 -4 -11 -13z"/>
<path d="M3860 1645 c0 -34 38 -86 62 -84 7 0 3 5 -8 11 -23 11 -51 54 -42 64
4 3 12 -7 20 -23 11 -23 20 -28 46 -26 29 1 31 -1 20 -15 -11 -13 -10 -14 8
-4 34 18 46 39 42 73 -2 26 -8 33 -26 34 -12 1 -27 -4 -33 -12 -9 -10 -8 -13
0 -13 19 0 8 -44 -11 -48 -13 -3 -19 6 -24 35 -5 31 -10 38 -30 39 -21 2 -24
-3 -24 -31z m140 -22 c0 -14 -19 -38 -25 -32 -8 8 5 39 16 39 5 0 9 -3 9 -7z"/>
<path d="M3925 1630 c3 -5 8 -10 11 -10 2 0 4 5 4 10 0 6 -5 10 -11 10 -5 0
-7 -4 -4 -10z"/>
<path d="M7684 1695 c-4 -8 -3 -23 1 -32 6 -17 7 -17 20 0 14 19 10 47 -6 47
-5 0 -12 -7 -15 -15z"/>
<path d="M2763 1705 c-25 -17 -31 -63 -12 -82 8 -8 8 -17 -1 -33 -19 -35 -7
-45 51 -44 41 1 53 5 50 15 -2 8 -3 25 -3 39 2 82 2 103 -1 106 -13 14 -65 13
-84 -1z"/>
<path d="M2890 1640 c0 -5 5 -10 10 -10 6 0 10 5 10 10 0 6 -4 10 -10 10 -5 0
-10 -4 -10 -10z"/>
<path d="M5285 1711 c3 -5 1 -12 -5 -16 -5 -3 -10 -14 -9 -23 0 -14 2 -14 6
-2 8 19 24 35 43 43 9 3 3 6 -13 6 -16 1 -26 -3 -22 -8z"/>
<path d="M5321 1692 c-16 -5 -14 -47 3 -61 8 -7 22 -11 32 -9 9 2 19 -3 21 -9
3 -9 -6 -13 -26 -13 -16 0 -33 -5 -36 -11 -5 -7 6 -9 31 -7 32 2 40 7 42 26 5
30 -14 52 -45 52 -14 0 -21 4 -18 10 3 6 17 10 31 10 13 0 24 4 24 10 0 9 -34
10 -59 2z"/>
<path d="M5434 1632 c4 -7 4 -12 -1 -12 -4 0 -13 -11 -20 -25 -16 -36 3 -31
20 5 11 20 12 32 5 36 -7 4 -8 2 -4 -4z"/>
<path d="M5250 1626 c0 -2 8 -10 18 -17 15 -13 16 -12 3 4 -13 16 -21 21 -21
13z"/>
<path d="M1303 1674 c-3 -9 -1 -26 6 -36 7 -11 8 -17 2 -14 -14 9 -23 -11 -9
-21 12 -8 178 -13 178 -5 0 2 -5 12 -10 23 -7 13 -7 25 -1 38 8 15 7 20 -7 23
-31 8 -42 -2 -35 -35 4 -22 2 -29 -5 -22 -6 6 -12 21 -14 35 -2 19 -9 25 -28
25 -23 0 -25 -4 -23 -40 1 -22 -1 -32 -3 -22 -3 9 -11 17 -17 17 -8 0 -8 3 1
12 8 8 9 15 1 25 -15 18 -28 16 -36 -3z"/>
<path d="M6141 1684 c-34 -44 -26 -86 21 -110 53 -28 108 6 108 67 0 45 -27
69 -76 69 -23 0 -39 -8 -53 -26z"/>
<path d="M6188 1463 c6 -2 18 -2 25 0 6 3 1 5 -13 5 -14 0 -19 -2 -12 -5z"/>
<path d="M6125 1440 c-10 -11 -15 -23 -10 -28 4 -4 10 -1 12 6 3 6 8 10 12 8
4 -3 8 4 8 15 2 24 0 24 -22 -1z"/>
<path d="M6171 1368 c1 -24 3 -27 6 -10 3 17 11 22 34 22 16 0 29 5 29 10 0 6
-16 10 -35 10 -33 0 -35 -2 -34 -32z"/>
<path d="M1899 1425 c-9 -8 0 -104 11 -126 12 -22 60 -24 67 -2 3 7 -3 9 -16
6 -23 -6 -23 -4 -25 77 -1 31 -6 46 -17 48 -8 1 -17 0 -20 -3z"/>
<path d="M1989 1408 c-3 -62 -2 -119 4 -124 3 -4 12 -4 20 -1 10 4 13 23 12
74 -1 55 -5 69 -18 71 -12 2 -17 -4 -18 -20z"/>
<path d="M3760 1330 c0 -5 5 -10 11 -10 5 0 7 5 4 10 -3 6 -8 10 -11 10 -2 0
-4 -4 -4 -10z"/>
<path d="M4185 1390 c3 -5 13 -10 21 -10 8 0 12 5 9 10 -3 6 -13 10 -21 10 -8
0 -12 -4 -9 -10z"/>
<path d="M4235 1390 c-3 -5 3 -10 14 -10 12 0 21 5 21 10 0 6 -6 10 -14 10 -8
0 -18 -4 -21 -10z"/>
<path d="M5070 1391 c0 -6 5 -13 10 -16 6 -3 10 1 10 9 0 9 -4 16 -10 16 -5 0
-10 -4 -10 -9z"/>
<path d="M5020 1381 c0 -18 22 -71 30 -71 15 0 19 30 8 55 -10 23 -38 35 -38
16z"/>
<path d="M3625 1380 c3 -5 10 -10 16 -10 5 0 9 5 9 10 0 6 -7 10 -16 10 -8 0
-12 -4 -9 -10z"/>
<path d="M3670 1380 c0 -5 7 -10 15 -10 8 0 15 5 15 10 0 6 -7 10 -15 10 -8 0
-15 -4 -15 -10z"/>
<path d="M5915 1370 c3 -5 8 -10 11 -10 2 0 4 5 4 10 0 6 -5 10 -11 10 -5 0
-7 -4 -4 -10z"/>
</g>
</svg>
